solid ascii
  facet normal 0.000000e+000 0.000000e+000 1.000000e+000
    outer loop
      vertex   -1.749967e+002 1.093000e+002 2.400000e+001
      vertex   -1.778000e+002 1.093000e+002 2.400000e+001
      vertex   -1.749967e+002 9.930000e+001 2.400000e+001
    endloop
  endfacet
  facet normal 0.000000e+000 0.000000e+000 1.000000e+000
    outer loop
      vertex   -1.749967e+002 9.930000e+001 2.400000e+001
      vertex   -1.778000e+002 1.093000e+002 2.400000e+001
      vertex   -1.778000e+002 9.930000e+001 2.400000e+001
    endloop
  endfacet
  facet normal 0.000000e+000 -0.000000e+000 1.000000e+000
    outer loop
      vertex   -1.160033e+002 9.930000e+001 2.400000e+001
      vertex   -1.132000e+002 9.930000e+001 2.400000e+001
      vertex   -1.160033e+002 1.093000e+002 2.400000e+001
    endloop
  endfacet
  facet normal -0.000000e+000 0.000000e+000 1.000000e+000
    outer loop
      vertex   -1.160033e+002 1.093000e+002 2.400000e+001
      vertex   -1.132000e+002 9.930000e+001 2.400000e+001
      vertex   -1.132000e+002 1.093000e+002 2.400000e+001
    endloop
  endfacet
  facet normal 0.000000e+000 0.000000e+000 1.000000e+000
    outer loop
      vertex   -1.547948e+002 1.093000e+002 2.400000e+001
      vertex   -1.680033e+002 1.093000e+002 2.400000e+001
      vertex   -1.547948e+002 9.930000e+001 2.400000e+001
    endloop
  endfacet
  facet normal 0.000000e+000 0.000000e+000 1.000000e+000
    outer loop
      vertex   -1.547948e+002 9.930000e+001 2.400000e+001
      vertex   -1.680033e+002 1.093000e+002 2.400000e+001
      vertex   -1.680033e+002 9.930000e+001 2.400000e+001
    endloop
  endfacet
  facet normal 0.000000e+000 0.000000e+000 1.000000e+000
    outer loop
      vertex   -1.427948e+002 1.093000e+002 2.400000e+001
      vertex   -1.478014e+002 1.093000e+002 2.400000e+001
      vertex   -1.427948e+002 9.930000e+001 2.400000e+001
    endloop
  endfacet
  facet normal 0.000000e+000 0.000000e+000 1.000000e+000
    outer loop
      vertex   -1.427948e+002 9.930000e+001 2.400000e+001
      vertex   -1.478014e+002 1.093000e+002 2.400000e+001
      vertex   -1.478014e+002 9.930000e+001 2.400000e+001
    endloop
  endfacet
  facet normal 0.000000e+000 -0.000000e+000 1.000000e+000
    outer loop
      vertex   -1.358014e+002 9.930000e+001 2.400000e+001
      vertex   -1.229967e+002 9.930000e+001 2.400000e+001
      vertex   -1.358014e+002 1.093000e+002 2.400000e+001
    endloop
  endfacet
  facet normal -0.000000e+000 0.000000e+000 1.000000e+000
    outer loop
      vertex   -1.358014e+002 1.093000e+002 2.400000e+001
      vertex   -1.229967e+002 9.930000e+001 2.400000e+001
      vertex   -1.229967e+002 1.093000e+002 2.400000e+001
    endloop
  endfacet
  facet normal 0.000000e+000 0.000000e+000 1.000000e+000
    outer loop
      vertex   -1.749967e+002 -6.130000e+001 2.400000e+001
      vertex   -1.778000e+002 -6.130000e+001 2.400000e+001
      vertex   -1.749967e+002 -7.130000e+001 2.400000e+001
    endloop
  endfacet
  facet normal 0.000000e+000 0.000000e+000 1.000000e+000
    outer loop
      vertex   -1.749967e+002 -7.130000e+001 2.400000e+001
      vertex   -1.778000e+002 -6.130000e+001 2.400000e+001
      vertex   -1.778000e+002 -7.130000e+001 2.400000e+001
    endloop
  endfacet
  facet normal 0.000000e+000 -0.000000e+000 1.000000e+000
    outer loop
      vertex   -1.160033e+002 -7.130000e+001 2.400000e+001
      vertex   -1.132000e+002 -7.130000e+001 2.400000e+001
      vertex   -1.160033e+002 -6.130000e+001 2.400000e+001
    endloop
  endfacet
  facet normal -0.000000e+000 0.000000e+000 1.000000e+000
    outer loop
      vertex   -1.160033e+002 -6.130000e+001 2.400000e+001
      vertex   -1.132000e+002 -7.130000e+001 2.400000e+001
      vertex   -1.132000e+002 -6.130000e+001 2.400000e+001
    endloop
  endfacet
  facet normal 0.000000e+000 0.000000e+000 1.000000e+000
    outer loop
      vertex   -1.547948e+002 -6.130000e+001 2.400000e+001
      vertex   -1.680033e+002 -6.130000e+001 2.400000e+001
      vertex   -1.547948e+002 -7.130000e+001 2.400000e+001
    endloop
  endfacet
  facet normal 0.000000e+000 0.000000e+000 1.000000e+000
    outer loop
      vertex   -1.547948e+002 -7.130000e+001 2.400000e+001
      vertex   -1.680033e+002 -6.130000e+001 2.400000e+001
      vertex   -1.680033e+002 -7.130000e+001 2.400000e+001
    endloop
  endfacet
  facet normal 0.000000e+000 -0.000000e+000 1.000000e+000
    outer loop
      vertex   -1.358014e+002 -7.130000e+001 2.400000e+001
      vertex   -1.229967e+002 -7.130000e+001 2.400000e+001
      vertex   -1.358014e+002 -6.130000e+001 2.400000e+001
    endloop
  endfacet
  facet normal -0.000000e+000 -0.000000e+000 1.000000e+000
    outer loop
      vertex   -1.358014e+002 -6.130000e+001 2.400000e+001
      vertex   -1.229967e+002 -7.130000e+001 2.400000e+001
      vertex   -1.229967e+002 -6.130000e+001 2.400000e+001
    endloop
  endfacet
  facet normal 0.000000e+000 0.000000e+000 1.000000e+000
    outer loop
      vertex   -1.427948e+002 -6.130000e+001 2.400000e+001
      vertex   -1.478014e+002 -6.130000e+001 2.400000e+001
      vertex   -1.427948e+002 -7.130000e+001 2.400000e+001
    endloop
  endfacet
  facet normal 0.000000e+000 0.000000e+000 1.000000e+000
    outer loop
      vertex   -1.427948e+002 -7.130000e+001 2.400000e+001
      vertex   -1.478014e+002 -6.130000e+001 2.400000e+001
      vertex   -1.478014e+002 -7.130000e+001 2.400000e+001
    endloop
  endfacet
  facet normal 1.000000e+000 -0.000000e+000 0.000000e+000
    outer loop
      vertex   -1.229967e+002 9.930000e+001 2.400000e+001
      vertex   -1.229967e+002 9.930000e+001 2.300000e+001
      vertex   -1.229967e+002 1.093000e+002 2.400000e+001
    endloop
  endfacet
  facet normal 1.000000e+000 -0.000000e+000 0.000000e+000
    outer loop
      vertex   -1.229967e+002 1.093000e+002 2.400000e+001
      vertex   -1.229967e+002 9.930000e+001 2.300000e+001
      vertex   -1.229967e+002 1.093000e+002 2.300000e+001
    endloop
  endfacet
  facet normal 0.000000e+000 0.000000e+000 1.000000e+000
    outer loop
      vertex   -1.160033e+002 -6.130000e+001 2.300000e+001
      vertex   -1.229967e+002 -6.130000e+001 2.300000e+001
      vertex   -1.160033e+002 -7.130000e+001 2.300000e+001
    endloop
  endfacet
  facet normal 0.000000e+000 0.000000e+000 1.000000e+000
    outer loop
      vertex   -1.160033e+002 -7.130000e+001 2.300000e+001
      vertex   -1.229967e+002 -6.130000e+001 2.300000e+001
      vertex   -1.229967e+002 -7.130000e+001 2.300000e+001
    endloop
  endfacet
  facet normal -1.000000e+000 -0.000000e+000 -0.000000e+000
    outer loop
      vertex   -1.160033e+002 -6.130000e+001 2.400000e+001
      vertex   -1.160033e+002 -6.130000e+001 2.300000e+001
      vertex   -1.160033e+002 -7.130000e+001 2.400000e+001
    endloop
  endfacet
  facet normal -1.000000e+000 -0.000000e+000 -0.000000e+000
    outer loop
      vertex   -1.160033e+002 -7.130000e+001 2.400000e+001
      vertex   -1.160033e+002 -6.130000e+001 2.300000e+001
      vertex   -1.160033e+002 -7.130000e+001 2.300000e+001
    endloop
  endfacet
  facet normal -1.000000e+000 -1.421085e-015 0.000000e+000
    outer loop
      vertex   -1.160033e+002 9.930000e+001 2.400000e+001
      vertex   -1.160033e+002 1.093000e+002 2.400000e+001
      vertex   -1.160033e+002 9.930000e+001 2.300000e+001
    endloop
  endfacet
  facet normal -1.000000e+000 -1.421085e-015 -5.421014e-021
    outer loop
      vertex   -1.160033e+002 9.930000e+001 2.300000e+001
      vertex   -1.160033e+002 1.093000e+002 2.400000e+001
      vertex   -1.160033e+002 1.093000e+002 2.300000e+001
    endloop
  endfacet
  facet normal 1.000000e+000 1.421085e-015 0.000000e+000
    outer loop
      vertex   -1.229967e+002 -6.130000e+001 2.400000e+001
      vertex   -1.229967e+002 -7.130000e+001 2.400000e+001
      vertex   -1.229967e+002 -6.130000e+001 2.300000e+001
    endloop
  endfacet
  facet normal 1.000000e+000 1.421085e-015 -1.355254e-021
    outer loop
      vertex   -1.229967e+002 -6.130000e+001 2.300000e+001
      vertex   -1.229967e+002 -7.130000e+001 2.400000e+001
      vertex   -1.229967e+002 -7.130000e+001 2.300000e+001
    endloop
  endfacet
  facet normal 0.000000e+000 -0.000000e+000 1.000000e+000
    outer loop
      vertex   -1.229967e+002 9.930000e+001 2.300000e+001
      vertex   -1.160033e+002 9.930000e+001 2.300000e+001
      vertex   -1.229967e+002 1.093000e+002 2.300000e+001
    endloop
  endfacet
  facet normal -0.000000e+000 -0.000000e+000 1.000000e+000
    outer loop
      vertex   -1.229967e+002 1.093000e+002 2.300000e+001
      vertex   -1.160033e+002 9.930000e+001 2.300000e+001
      vertex   -1.160033e+002 1.093000e+002 2.300000e+001
    endloop
  endfacet
  facet normal -1.000000e+000 -0.000000e+000 -0.000000e+000
    outer loop
      vertex   -1.478014e+002 -6.130000e+001 2.400000e+001
      vertex   -1.478014e+002 -6.130000e+001 2.300000e+001
      vertex   -1.478014e+002 -7.130000e+001 2.400000e+001
    endloop
  endfacet
  facet normal -1.000000e+000 -0.000000e+000 -0.000000e+000
    outer loop
      vertex   -1.478014e+002 -7.130000e+001 2.400000e+001
      vertex   -1.478014e+002 -6.130000e+001 2.300000e+001
      vertex   -1.478014e+002 -7.130000e+001 2.300000e+001
    endloop
  endfacet
  facet normal -1.000000e+000 -0.000000e+000 -0.000000e+000
    outer loop
      vertex   -1.358014e+002 -6.130000e+001 2.400000e+001
      vertex   -1.358014e+002 -6.130000e+001 2.300000e+001
      vertex   -1.358014e+002 -7.130000e+001 2.400000e+001
    endloop
  endfacet
  facet normal -1.000000e+000 -0.000000e+000 -0.000000e+000
    outer loop
      vertex   -1.358014e+002 -7.130000e+001 2.400000e+001
      vertex   -1.358014e+002 -6.130000e+001 2.300000e+001
      vertex   -1.358014e+002 -7.130000e+001 2.300000e+001
    endloop
  endfacet
  facet normal 1.000000e+000 -0.000000e+000 0.000000e+000
    outer loop
      vertex   -1.427948e+002 9.930000e+001 2.400000e+001
      vertex   -1.427948e+002 9.930000e+001 2.300000e+001
      vertex   -1.427948e+002 1.093000e+002 2.400000e+001
    endloop
  endfacet
  facet normal 1.000000e+000 -0.000000e+000 0.000000e+000
    outer loop
      vertex   -1.427948e+002 1.093000e+002 2.400000e+001
      vertex   -1.427948e+002 9.930000e+001 2.300000e+001
      vertex   -1.427948e+002 1.093000e+002 2.300000e+001
    endloop
  endfacet
  facet normal 0.000000e+000 -0.000000e+000 1.000000e+000
    outer loop
      vertex   -1.547948e+002 9.930000e+001 2.300000e+001
      vertex   -1.478014e+002 9.930000e+001 2.300000e+001
      vertex   -1.547948e+002 1.093000e+002 2.300000e+001
    endloop
  endfacet
  facet normal -0.000000e+000 -0.000000e+000 1.000000e+000
    outer loop
      vertex   -1.547948e+002 1.093000e+002 2.300000e+001
      vertex   -1.478014e+002 9.930000e+001 2.300000e+001
      vertex   -1.478014e+002 1.093000e+002 2.300000e+001
    endloop
  endfacet
  facet normal 0.000000e+000 -0.000000e+000 1.000000e+000
    outer loop
      vertex   -1.427948e+002 9.930000e+001 2.300000e+001
      vertex   -1.358014e+002 9.930000e+001 2.300000e+001
      vertex   -1.427948e+002 1.093000e+002 2.300000e+001
    endloop
  endfacet
  facet normal -0.000000e+000 0.000000e+000 1.000000e+000
    outer loop
      vertex   -1.427948e+002 1.093000e+002 2.300000e+001
      vertex   -1.358014e+002 9.930000e+001 2.300000e+001
      vertex   -1.358014e+002 1.093000e+002 2.300000e+001
    endloop
  endfacet
  facet normal 0.000000e+000 0.000000e+000 1.000000e+000
    outer loop
      vertex   -1.358014e+002 -6.130000e+001 2.300000e+001
      vertex   -1.427948e+002 -6.130000e+001 2.300000e+001
      vertex   -1.358014e+002 -7.130000e+001 2.300000e+001
    endloop
  endfacet
  facet normal 0.000000e+000 0.000000e+000 1.000000e+000
    outer loop
      vertex   -1.358014e+002 -7.130000e+001 2.300000e+001
      vertex   -1.427948e+002 -6.130000e+001 2.300000e+001
      vertex   -1.427948e+002 -7.130000e+001 2.300000e+001
    endloop
  endfacet
  facet normal 1.000000e+000 -0.000000e+000 0.000000e+000
    outer loop
      vertex   -1.547948e+002 9.930000e+001 2.400000e+001
      vertex   -1.547948e+002 9.930000e+001 2.300000e+001
      vertex   -1.547948e+002 1.093000e+002 2.400000e+001
    endloop
  endfacet
  facet normal 1.000000e+000 -0.000000e+000 0.000000e+000
    outer loop
      vertex   -1.547948e+002 1.093000e+002 2.400000e+001
      vertex   -1.547948e+002 9.930000e+001 2.300000e+001
      vertex   -1.547948e+002 1.093000e+002 2.300000e+001
    endloop
  endfacet
  facet normal 1.000000e+000 0.000000e+000 0.000000e+000
    outer loop
      vertex   -1.547948e+002 -6.130000e+001 2.400000e+001
      vertex   -1.547948e+002 -7.130000e+001 2.400000e+001
      vertex   -1.547948e+002 -6.130000e+001 2.300000e+001
    endloop
  endfacet
  facet normal 1.000000e+000 0.000000e+000 0.000000e+000
    outer loop
      vertex   -1.547948e+002 -6.130000e+001 2.300000e+001
      vertex   -1.547948e+002 -7.130000e+001 2.400000e+001
      vertex   -1.547948e+002 -7.130000e+001 2.300000e+001
    endloop
  endfacet
  facet normal 1.000000e+000 0.000000e+000 0.000000e+000
    outer loop
      vertex   -1.427948e+002 -6.130000e+001 2.400000e+001
      vertex   -1.427948e+002 -7.130000e+001 2.400000e+001
      vertex   -1.427948e+002 -6.130000e+001 2.300000e+001
    endloop
  endfacet
  facet normal 1.000000e+000 0.000000e+000 0.000000e+000
    outer loop
      vertex   -1.427948e+002 -6.130000e+001 2.300000e+001
      vertex   -1.427948e+002 -7.130000e+001 2.400000e+001
      vertex   -1.427948e+002 -7.130000e+001 2.300000e+001
    endloop
  endfacet
  facet normal -1.000000e+000 0.000000e+000 -0.000000e+000
    outer loop
      vertex   -1.358014e+002 9.930000e+001 2.400000e+001
      vertex   -1.358014e+002 1.093000e+002 2.400000e+001
      vertex   -1.358014e+002 9.930000e+001 2.300000e+001
    endloop
  endfacet
  facet normal -1.000000e+000 0.000000e+000 0.000000e+000
    outer loop
      vertex   -1.358014e+002 9.930000e+001 2.300000e+001
      vertex   -1.358014e+002 1.093000e+002 2.400000e+001
      vertex   -1.358014e+002 1.093000e+002 2.300000e+001
    endloop
  endfacet
  facet normal -1.000000e+000 -2.842171e-015 0.000000e+000
    outer loop
      vertex   -1.478014e+002 9.930000e+001 2.400000e+001
      vertex   -1.478014e+002 1.093000e+002 2.400000e+001
      vertex   -1.478014e+002 9.930000e+001 2.300000e+001
    endloop
  endfacet
  facet normal -1.000000e+000 -2.842170e-015 -1.084203e-020
    outer loop
      vertex   -1.478014e+002 9.930000e+001 2.300000e+001
      vertex   -1.478014e+002 1.093000e+002 2.400000e+001
      vertex   -1.478014e+002 1.093000e+002 2.300000e+001
    endloop
  endfacet
  facet normal 0.000000e+000 0.000000e+000 1.000000e+000
    outer loop
      vertex   -1.478014e+002 -6.130000e+001 2.300000e+001
      vertex   -1.547948e+002 -6.130000e+001 2.300000e+001
      vertex   -1.478014e+002 -7.130000e+001 2.300000e+001
    endloop
  endfacet
  facet normal 0.000000e+000 0.000000e+000 1.000000e+000
    outer loop
      vertex   -1.478014e+002 -7.130000e+001 2.300000e+001
      vertex   -1.547948e+002 -6.130000e+001 2.300000e+001
      vertex   -1.547948e+002 -7.130000e+001 2.300000e+001
    endloop
  endfacet
  facet normal 1.000000e+000 -0.000000e+000 0.000000e+000
    outer loop
      vertex   -1.749967e+002 9.930000e+001 2.400000e+001
      vertex   -1.749967e+002 9.930000e+001 2.300000e+001
      vertex   -1.749967e+002 1.093000e+002 2.400000e+001
    endloop
  endfacet
  facet normal 1.000000e+000 -0.000000e+000 0.000000e+000
    outer loop
      vertex   -1.749967e+002 1.093000e+002 2.400000e+001
      vertex   -1.749967e+002 9.930000e+001 2.300000e+001
      vertex   -1.749967e+002 1.093000e+002 2.300000e+001
    endloop
  endfacet
  facet normal 0.000000e+000 0.000000e+000 1.000000e+000
    outer loop
      vertex   -1.680033e+002 -6.130000e+001 2.300000e+001
      vertex   -1.749967e+002 -6.130000e+001 2.300000e+001
      vertex   -1.680033e+002 -7.130000e+001 2.300000e+001
    endloop
  endfacet
  facet normal 0.000000e+000 0.000000e+000 1.000000e+000
    outer loop
      vertex   -1.680033e+002 -7.130000e+001 2.300000e+001
      vertex   -1.749967e+002 -6.130000e+001 2.300000e+001
      vertex   -1.749967e+002 -7.130000e+001 2.300000e+001
    endloop
  endfacet
  facet normal -1.000000e+000 -0.000000e+000 -0.000000e+000
    outer loop
      vertex   -1.680033e+002 -6.130000e+001 2.400000e+001
      vertex   -1.680033e+002 -6.130000e+001 2.300000e+001
      vertex   -1.680033e+002 -7.130000e+001 2.400000e+001
    endloop
  endfacet
  facet normal -1.000000e+000 -0.000000e+000 -0.000000e+000
    outer loop
      vertex   -1.680033e+002 -7.130000e+001 2.400000e+001
      vertex   -1.680033e+002 -6.130000e+001 2.300000e+001
      vertex   -1.680033e+002 -7.130000e+001 2.300000e+001
    endloop
  endfacet
  facet normal -1.000000e+000 0.000000e+000 -0.000000e+000
    outer loop
      vertex   -1.680033e+002 9.930000e+001 2.400000e+001
      vertex   -1.680033e+002 1.093000e+002 2.400000e+001
      vertex   -1.680033e+002 9.930000e+001 2.300000e+001
    endloop
  endfacet
  facet normal -1.000000e+000 0.000000e+000 0.000000e+000
    outer loop
      vertex   -1.680033e+002 9.930000e+001 2.300000e+001
      vertex   -1.680033e+002 1.093000e+002 2.400000e+001
      vertex   -1.680033e+002 1.093000e+002 2.300000e+001
    endloop
  endfacet
  facet normal 1.000000e+000 5.684342e-015 0.000000e+000
    outer loop
      vertex   -1.749967e+002 -6.130000e+001 2.400000e+001
      vertex   -1.749967e+002 -7.130000e+001 2.400000e+001
      vertex   -1.749967e+002 -6.130000e+001 2.300000e+001
    endloop
  endfacet
  facet normal 1.000000e+000 5.684341e-015 -5.421015e-021
    outer loop
      vertex   -1.749967e+002 -6.130000e+001 2.300000e+001
      vertex   -1.749967e+002 -7.130000e+001 2.400000e+001
      vertex   -1.749967e+002 -7.130000e+001 2.300000e+001
    endloop
  endfacet
  facet normal 0.000000e+000 -0.000000e+000 1.000000e+000
    outer loop
      vertex   -1.749967e+002 9.930000e+001 2.300000e+001
      vertex   -1.680033e+002 9.930000e+001 2.300000e+001
      vertex   -1.749967e+002 1.093000e+002 2.300000e+001
    endloop
  endfacet
  facet normal -0.000000e+000 0.000000e+000 1.000000e+000
    outer loop
      vertex   -1.749967e+002 1.093000e+002 2.300000e+001
      vertex   -1.680033e+002 9.930000e+001 2.300000e+001
      vertex   -1.680033e+002 1.093000e+002 2.300000e+001
    endloop
  endfacet
  facet normal 0.000000e+000 -1.000000e+000 0.000000e+000
    outer loop
      vertex   -1.778000e+002 1.093000e+002 2.400000e+001
      vertex   -1.749967e+002 1.093000e+002 2.400000e+001
      vertex   -1.778000e+002 1.093000e+002 2.900000e+001
    endloop
  endfacet
  facet normal 0.000000e+000 -1.000000e+000 0.000000e+000
    outer loop
      vertex   -1.778000e+002 1.093000e+002 2.900000e+001
      vertex   -1.749967e+002 1.093000e+002 2.400000e+001
      vertex   -1.680033e+002 1.093000e+002 2.400000e+001
    endloop
  endfacet
  facet normal 0.000000e+000 -1.000000e+000 -0.000000e+000
    outer loop
      vertex   -1.455000e+002 1.093000e+002 2.900000e+001
      vertex   -1.680033e+002 1.093000e+002 2.400000e+001
      vertex   -1.547948e+002 1.093000e+002 2.400000e+001
    endloop
  endfacet
  facet normal -0.000000e+000 -1.000000e+000 -3.814701e-006
    outer loop
      vertex   -1.478014e+002 1.093000e+002 2.400000e+001
      vertex   -1.547948e+002 1.093000e+002 2.400000e+001
      vertex   -1.478014e+002 1.093000e+002 2.300000e+001
    endloop
  endfacet
  facet normal -0.000000e+000 -1.000000e+000 0.000000e+000
    outer loop
      vertex   -1.478014e+002 1.093000e+002 2.400000e+001
      vertex   -1.455000e+002 1.093000e+002 2.900000e+001
      vertex   -1.547948e+002 1.093000e+002 2.400000e+001
    endloop
  endfacet
  facet normal 0.000000e+000 -1.000000e+000 0.000000e+000
    outer loop
      vertex   -1.478014e+002 1.093000e+002 2.400000e+001
      vertex   -1.427948e+002 1.093000e+002 2.400000e+001
      vertex   -1.455000e+002 1.093000e+002 2.900000e+001
    endloop
  endfacet
  facet normal 0.000000e+000 -1.000000e+000 0.000000e+000
    outer loop
      vertex   -1.455000e+002 1.093000e+002 2.900000e+001
      vertex   -1.427948e+002 1.093000e+002 2.400000e+001
      vertex   -1.358014e+002 1.093000e+002 2.400000e+001
    endloop
  endfacet
  facet normal -0.000000e+000 -1.000000e+000 -0.000000e+000
    outer loop
      vertex   -1.229967e+002 1.093000e+002 2.400000e+001
      vertex   -1.455000e+002 1.093000e+002 2.900000e+001
      vertex   -1.358014e+002 1.093000e+002 2.400000e+001
    endloop
  endfacet
  facet normal 0.000000e+000 -1.000000e+000 0.000000e+000
    outer loop
      vertex   -1.229967e+002 1.093000e+002 2.400000e+001
      vertex   -1.132000e+002 1.093000e+002 2.900000e+001
      vertex   -1.455000e+002 1.093000e+002 2.900000e+001
    endloop
  endfacet
  facet normal 0.000000e+000 -1.000000e+000 0.000000e+000
    outer loop
      vertex   -1.229967e+002 1.093000e+002 2.400000e+001
      vertex   -1.160033e+002 1.093000e+002 2.400000e+001
      vertex   -1.132000e+002 1.093000e+002 2.900000e+001
    endloop
  endfacet
  facet normal 0.000000e+000 -1.000000e+000 -3.814701e-006
    outer loop
      vertex   -1.229967e+002 1.093000e+002 2.400000e+001
      vertex   -1.160033e+002 1.093000e+002 2.300000e+001
      vertex   -1.160033e+002 1.093000e+002 2.400000e+001
    endloop
  endfacet
  facet normal 0.000000e+000 -1.000000e+000 -3.814701e-006
    outer loop
      vertex   -1.229967e+002 1.093000e+002 2.400000e+001
      vertex   -1.229967e+002 1.093000e+002 2.300000e+001
      vertex   -1.160033e+002 1.093000e+002 2.300000e+001
    endloop
  endfacet
  facet normal 0.000000e+000 -1.000000e+000 -3.814701e-006
    outer loop
      vertex   -1.749967e+002 1.093000e+002 2.300000e+001
      vertex   -1.680033e+002 1.093000e+002 2.300000e+001
      vertex   -1.749967e+002 1.093000e+002 2.400000e+001
    endloop
  endfacet
  facet normal 0.000000e+000 -1.000000e+000 -3.814701e-006
    outer loop
      vertex   -1.749967e+002 1.093000e+002 2.400000e+001
      vertex   -1.680033e+002 1.093000e+002 2.300000e+001
      vertex   -1.680033e+002 1.093000e+002 2.400000e+001
    endloop
  endfacet
  facet normal 0.000000e+000 -1.000000e+000 0.000000e+000
    outer loop
      vertex   -1.778000e+002 1.093000e+002 2.900000e+001
      vertex   -1.680033e+002 1.093000e+002 2.400000e+001
      vertex   -1.455000e+002 1.093000e+002 2.900000e+001
    endloop
  endfacet
  facet normal 0.000000e+000 -1.000000e+000 -3.814701e-006
    outer loop
      vertex   -1.547948e+002 1.093000e+002 2.400000e+001
      vertex   -1.547948e+002 1.093000e+002 2.300000e+001
      vertex   -1.478014e+002 1.093000e+002 2.300000e+001
    endloop
  endfacet
  facet normal 0.000000e+000 -1.000000e+000 -3.814701e-006
    outer loop
      vertex   -1.427948e+002 1.093000e+002 2.300000e+001
      vertex   -1.358014e+002 1.093000e+002 2.300000e+001
      vertex   -1.427948e+002 1.093000e+002 2.400000e+001
    endloop
  endfacet
  facet normal 0.000000e+000 -1.000000e+000 -3.814701e-006
    outer loop
      vertex   -1.427948e+002 1.093000e+002 2.400000e+001
      vertex   -1.358014e+002 1.093000e+002 2.300000e+001
      vertex   -1.358014e+002 1.093000e+002 2.400000e+001
    endloop
  endfacet
  facet normal 0.000000e+000 -1.000000e+000 0.000000e+000
    outer loop
      vertex   -1.160033e+002 1.093000e+002 2.400000e+001
      vertex   -1.132000e+002 1.093000e+002 2.400000e+001
      vertex   -1.132000e+002 1.093000e+002 2.900000e+001
    endloop
  endfacet
  facet normal 1.000000e+000 0.000000e+000 -0.000000e+000
    outer loop
      vertex   -1.778000e+002 9.930000e+001 3.000000e+000
      vertex   -1.778000e+002 9.930000e+001 2.400000e+001
      vertex   -1.778000e+002 4.576667e+001 3.000000e+000
    endloop
  endfacet
  facet normal 1.000000e+000 0.000000e+000 -0.000000e+000
    outer loop
      vertex   -1.778000e+002 4.576667e+001 3.000000e+000
      vertex   -1.778000e+002 9.930000e+001 2.400000e+001
      vertex   -1.778000e+002 6.415000e+001 2.900000e+001
    endloop
  endfacet
  facet normal 1.000000e+000 -0.000000e+000 0.000000e+000
    outer loop
      vertex   -1.778000e+002 1.900000e+001 2.900000e+001
      vertex   -1.778000e+002 4.576667e+001 3.000000e+000
      vertex   -1.778000e+002 6.415000e+001 2.900000e+001
    endloop
  endfacet
  facet normal 1.000000e+000 -0.000000e+000 0.000000e+000
    outer loop
      vertex   -1.778000e+002 1.900000e+001 2.900000e+001
      vertex   -1.778000e+002 -7.766667e+000 3.000000e+000
      vertex   -1.778000e+002 4.576667e+001 3.000000e+000
    endloop
  endfacet
  facet normal 1.000000e+000 0.000000e+000 0.000000e+000
    outer loop
      vertex   -1.778000e+002 1.900000e+001 2.900000e+001
      vertex   -1.778000e+002 -2.615000e+001 2.900000e+001
      vertex   -1.778000e+002 -7.766667e+000 3.000000e+000
    endloop
  endfacet
  facet normal 1.000000e+000 0.000000e+000 0.000000e+000
    outer loop
      vertex   -1.778000e+002 -7.766667e+000 3.000000e+000
      vertex   -1.778000e+002 -2.615000e+001 2.900000e+001
      vertex   -1.778000e+002 -6.130000e+001 2.400000e+001
    endloop
  endfacet
  facet normal 1.000000e+000 0.000000e+000 -0.000000e+000
    outer loop
      vertex   -1.778000e+002 -6.130000e+001 3.000000e+000
      vertex   -1.778000e+002 -7.766667e+000 3.000000e+000
      vertex   -1.778000e+002 -6.130000e+001 2.400000e+001
    endloop
  endfacet
  facet normal 1.000000e+000 0.000000e+000 -0.000000e+000
    outer loop
      vertex   -1.778000e+002 1.093000e+002 2.400000e+001
      vertex   -1.778000e+002 1.093000e+002 2.900000e+001
      vertex   -1.778000e+002 9.930000e+001 2.400000e+001
    endloop
  endfacet
  facet normal 1.000000e+000 0.000000e+000 -0.000000e+000
    outer loop
      vertex   -1.778000e+002 9.930000e+001 2.400000e+001
      vertex   -1.778000e+002 1.093000e+002 2.900000e+001
      vertex   -1.778000e+002 6.415000e+001 2.900000e+001
    endloop
  endfacet
  facet normal 1.000000e+000 0.000000e+000 0.000000e+000
    outer loop
      vertex   -1.778000e+002 -2.615000e+001 2.900000e+001
      vertex   -1.778000e+002 -7.130000e+001 2.900000e+001
      vertex   -1.778000e+002 -6.130000e+001 2.400000e+001
    endloop
  endfacet
  facet normal 1.000000e+000 0.000000e+000 0.000000e+000
    outer loop
      vertex   -1.778000e+002 -6.130000e+001 2.400000e+001
      vertex   -1.778000e+002 -7.130000e+001 2.900000e+001
      vertex   -1.778000e+002 -7.130000e+001 2.400000e+001
    endloop
  endfacet
  facet normal 0.000000e+000 0.000000e+000 1.000000e+000
    outer loop
      vertex   -1.778000e+002 -2.615000e+001 2.900000e+001
      vertex   -1.808000e+002 -2.765000e+001 2.900000e+001
      vertex   -1.778000e+002 -7.130000e+001 2.900000e+001
    endloop
  endfacet
  facet normal 0.000000e+000 0.000000e+000 1.000000e+000
    outer loop
      vertex   -1.778000e+002 -2.615000e+001 2.900000e+001
      vertex   -1.808000e+002 1.900000e+001 2.900000e+001
      vertex   -1.808000e+002 -2.765000e+001 2.900000e+001
    endloop
  endfacet
  facet normal 0.000000e+000 -0.000000e+000 1.000000e+000
    outer loop
      vertex   -1.778000e+002 -2.615000e+001 2.900000e+001
      vertex   -1.778000e+002 1.900000e+001 2.900000e+001
      vertex   -1.808000e+002 1.900000e+001 2.900000e+001
    endloop
  endfacet
  facet normal 0.000000e+000 0.000000e+000 1.000000e+000
    outer loop
      vertex   -1.808000e+002 1.900000e+001 2.900000e+001
      vertex   -1.778000e+002 1.900000e+001 2.900000e+001
      vertex   -1.778000e+002 6.415000e+001 2.900000e+001
    endloop
  endfacet
  facet normal -0.000000e+000 0.000000e+000 1.000000e+000
    outer loop
      vertex   -1.808000e+002 6.565000e+001 2.900000e+001
      vertex   -1.778000e+002 6.415000e+001 2.900000e+001
      vertex   -1.778000e+002 1.093000e+002 2.900000e+001
    endloop
  endfacet
  facet normal -2.012869e-016 2.167189e-015 1.000000e+000
    outer loop
      vertex   -1.808000e+002 1.123000e+002 2.900000e+001
      vertex   -1.778000e+002 1.093000e+002 2.900000e+001
      vertex   -1.455000e+002 1.123000e+002 2.900000e+001
    endloop
  endfacet
  facet normal -2.216162e-015 1.523136e-016 1.000000e+000
    outer loop
      vertex   -1.808000e+002 1.123000e+002 2.900000e+001
      vertex   -1.808000e+002 6.565000e+001 2.900000e+001
      vertex   -1.778000e+002 1.093000e+002 2.900000e+001
    endloop
  endfacet
  facet normal 0.000000e+000 -0.000000e+000 1.000000e+000
    outer loop
      vertex   -1.808000e+002 1.900000e+001 2.900000e+001
      vertex   -1.778000e+002 6.415000e+001 2.900000e+001
      vertex   -1.808000e+002 6.565000e+001 2.900000e+001
    endloop
  endfacet
  facet normal 0.000000e+000 0.000000e+000 1.000000e+000
    outer loop
      vertex   -1.778000e+002 1.093000e+002 2.900000e+001
      vertex   -1.455000e+002 1.093000e+002 2.900000e+001
      vertex   -1.455000e+002 1.123000e+002 2.900000e+001
    endloop
  endfacet
  facet normal -0.000000e+000 0.000000e+000 1.000000e+000
    outer loop
      vertex   -1.455000e+002 1.123000e+002 2.900000e+001
      vertex   -1.455000e+002 1.093000e+002 2.900000e+001
      vertex   -1.132000e+002 1.093000e+002 2.900000e+001
    endloop
  endfacet
  facet normal 2.216162e-015 1.523136e-016 1.000000e+000
    outer loop
      vertex   -1.102000e+002 1.123000e+002 2.900000e+001
      vertex   -1.132000e+002 1.093000e+002 2.900000e+001
      vertex   -1.102000e+002 6.565000e+001 2.900000e+001
    endloop
  endfacet
  facet normal 2.012869e-016 2.167189e-015 1.000000e+000
    outer loop
      vertex   -1.102000e+002 1.123000e+002 2.900000e+001
      vertex   -1.455000e+002 1.123000e+002 2.900000e+001
      vertex   -1.132000e+002 1.093000e+002 2.900000e+001
    endloop
  endfacet
  facet normal -0.000000e+000 0.000000e+000 1.000000e+000
    outer loop
      vertex   -1.132000e+002 1.093000e+002 2.900000e+001
      vertex   -1.132000e+002 6.415000e+001 2.900000e+001
      vertex   -1.102000e+002 6.565000e+001 2.900000e+001
    endloop
  endfacet
  facet normal 0.000000e+000 0.000000e+000 1.000000e+000
    outer loop
      vertex   -1.102000e+002 6.565000e+001 2.900000e+001
      vertex   -1.132000e+002 6.415000e+001 2.900000e+001
      vertex   -1.102000e+002 1.900000e+001 2.900000e+001
    endloop
  endfacet
  facet normal 0.000000e+000 0.000000e+000 1.000000e+000
    outer loop
      vertex   -1.102000e+002 1.900000e+001 2.900000e+001
      vertex   -1.132000e+002 6.415000e+001 2.900000e+001
      vertex   -1.132000e+002 1.900000e+001 2.900000e+001
    endloop
  endfacet
  facet normal 0.000000e+000 -0.000000e+000 1.000000e+000
    outer loop
      vertex   -1.132000e+002 -2.615000e+001 2.900000e+001
      vertex   -1.102000e+002 1.900000e+001 2.900000e+001
      vertex   -1.132000e+002 1.900000e+001 2.900000e+001
    endloop
  endfacet
  facet normal -0.000000e+000 0.000000e+000 1.000000e+000
    outer loop
      vertex   -1.132000e+002 -2.615000e+001 2.900000e+001
      vertex   -1.102000e+002 -2.765000e+001 2.900000e+001
      vertex   -1.102000e+002 1.900000e+001 2.900000e+001
    endloop
  endfacet
  facet normal -0.000000e+000 0.000000e+000 1.000000e+000
    outer loop
      vertex   -1.132000e+002 -2.615000e+001 2.900000e+001
      vertex   -1.132000e+002 -7.130000e+001 2.900000e+001
      vertex   -1.102000e+002 -2.765000e+001 2.900000e+001
    endloop
  endfacet
  facet normal 2.216162e-015 -1.523136e-016 1.000000e+000
    outer loop
      vertex   -1.102000e+002 -2.765000e+001 2.900000e+001
      vertex   -1.132000e+002 -7.130000e+001 2.900000e+001
      vertex   -1.102000e+002 -7.430000e+001 2.900000e+001
    endloop
  endfacet
  facet normal 2.012869e-016 -2.167189e-015 1.000000e+000
    outer loop
      vertex   -1.102000e+002 -7.430000e+001 2.900000e+001
      vertex   -1.132000e+002 -7.130000e+001 2.900000e+001
      vertex   -1.455000e+002 -7.430000e+001 2.900000e+001
    endloop
  endfacet
  facet normal 0.000000e+000 -0.000000e+000 1.000000e+000
    outer loop
      vertex   -1.455000e+002 -7.430000e+001 2.900000e+001
      vertex   -1.132000e+002 -7.130000e+001 2.900000e+001
      vertex   -1.455000e+002 -7.130000e+001 2.900000e+001
    endloop
  endfacet
  facet normal -0.000000e+000 0.000000e+000 1.000000e+000
    outer loop
      vertex   -1.778000e+002 -7.130000e+001 2.900000e+001
      vertex   -1.455000e+002 -7.430000e+001 2.900000e+001
      vertex   -1.455000e+002 -7.130000e+001 2.900000e+001
    endloop
  endfacet
  facet normal -2.012869e-016 -2.167189e-015 1.000000e+000
    outer loop
      vertex   -1.778000e+002 -7.130000e+001 2.900000e+001
      vertex   -1.808000e+002 -7.430000e+001 2.900000e+001
      vertex   -1.455000e+002 -7.430000e+001 2.900000e+001
    endloop
  endfacet
  facet normal -2.216162e-015 -1.523136e-016 1.000000e+000
    outer loop
      vertex   -1.778000e+002 -7.130000e+001 2.900000e+001
      vertex   -1.808000e+002 -2.765000e+001 2.900000e+001
      vertex   -1.808000e+002 -7.430000e+001 2.900000e+001
    endloop
  endfacet
  facet normal -1.000000e+000 0.000000e+000 0.000000e+000
    outer loop
      vertex   -1.808000e+002 4.676667e+001 3.000000e+000
      vertex   -1.808000e+002 6.565000e+001 2.900000e+001
      vertex   -1.808000e+002 1.023000e+002 3.000000e+000
    endloop
  endfacet
  facet normal -1.000000e+000 0.000000e+000 0.000000e+000
    outer loop
      vertex   -1.808000e+002 4.676667e+001 3.000000e+000
      vertex   -1.808000e+002 1.900000e+001 2.900000e+001
      vertex   -1.808000e+002 6.565000e+001 2.900000e+001
    endloop
  endfacet
  facet normal -1.000000e+000 0.000000e+000 0.000000e+000
    outer loop
      vertex   -1.808000e+002 4.676667e+001 3.000000e+000
      vertex   -1.808000e+002 -8.766667e+000 3.000000e+000
      vertex   -1.808000e+002 1.900000e+001 2.900000e+001
    endloop
  endfacet
  facet normal -1.000000e+000 -0.000000e+000 0.000000e+000
    outer loop
      vertex   -1.808000e+002 1.900000e+001 2.900000e+001
      vertex   -1.808000e+002 -8.766667e+000 3.000000e+000
      vertex   -1.808000e+002 -2.765000e+001 2.900000e+001
    endloop
  endfacet
  facet normal -1.000000e+000 -0.000000e+000 -0.000000e+000
    outer loop
      vertex   -1.808000e+002 -2.765000e+001 2.900000e+001
      vertex   -1.808000e+002 -8.766667e+000 3.000000e+000
      vertex   -1.808000e+002 -6.430000e+001 3.000000e+000
    endloop
  endfacet
  facet normal -1.000000e+000 0.000000e+000 -0.000000e+000
    outer loop
      vertex   -1.808000e+002 -7.430000e+001 2.900000e+001
      vertex   -1.808000e+002 -6.430000e+001 3.000000e+000
      vertex   -1.808000e+002 -7.430000e+001 0.000000e+000
    endloop
  endfacet
  facet normal -1.000000e+000 0.000000e+000 -0.000000e+000
    outer loop
      vertex   -1.808000e+002 -7.430000e+001 2.900000e+001
      vertex   -1.808000e+002 -2.765000e+001 2.900000e+001
      vertex   -1.808000e+002 -6.430000e+001 3.000000e+000
    endloop
  endfacet
  facet normal -1.000000e+000 -0.000000e+000 -0.000000e+000
    outer loop
      vertex   -1.808000e+002 -6.430000e+001 3.000000e+000
      vertex   -1.808000e+002 -6.430000e+001 0.000000e+000
      vertex   -1.808000e+002 -7.430000e+001 0.000000e+000
    endloop
  endfacet
  facet normal -1.000000e+000 0.000000e+000 -0.000000e+000
    outer loop
      vertex   -1.808000e+002 6.565000e+001 2.900000e+001
      vertex   -1.808000e+002 1.123000e+002 2.900000e+001
      vertex   -1.808000e+002 1.023000e+002 3.000000e+000
    endloop
  endfacet
  facet normal -1.000000e+000 0.000000e+000 -0.000000e+000
    outer loop
      vertex   -1.808000e+002 1.023000e+002 3.000000e+000
      vertex   -1.808000e+002 1.123000e+002 2.900000e+001
      vertex   -1.808000e+002 1.123000e+002 0.000000e+000
    endloop
  endfacet
  facet normal -1.000000e+000 0.000000e+000 0.000000e+000
    outer loop
      vertex   -1.808000e+002 1.023000e+002 0.000000e+000
      vertex   -1.808000e+002 1.023000e+002 3.000000e+000
      vertex   -1.808000e+002 1.123000e+002 0.000000e+000
    endloop
  endfacet
  facet normal -1.000000e+000 0.000000e+000 0.000000e+000
    outer loop
      vertex   -1.132000e+002 9.930000e+001 3.000000e+000
      vertex   -1.132000e+002 4.576667e+001 3.000000e+000
      vertex   -1.132000e+002 9.930000e+001 2.400000e+001
    endloop
  endfacet
  facet normal -1.000000e+000 -0.000000e+000 0.000000e+000
    outer loop
      vertex   -1.132000e+002 9.930000e+001 2.400000e+001
      vertex   -1.132000e+002 4.576667e+001 3.000000e+000
      vertex   -1.132000e+002 6.415000e+001 2.900000e+001
    endloop
  endfacet
  facet normal -1.000000e+000 -0.000000e+000 0.000000e+000
    outer loop
      vertex   -1.132000e+002 1.093000e+002 2.900000e+001
      vertex   -1.132000e+002 9.930000e+001 2.400000e+001
      vertex   -1.132000e+002 6.415000e+001 2.900000e+001
    endloop
  endfacet
  facet normal -1.000000e+000 -0.000000e+000 -0.000000e+000
    outer loop
      vertex   -1.132000e+002 1.093000e+002 2.900000e+001
      vertex   -1.132000e+002 1.093000e+002 2.400000e+001
      vertex   -1.132000e+002 9.930000e+001 2.400000e+001
    endloop
  endfacet
  facet normal -1.000000e+000 -0.000000e+000 0.000000e+000
    outer loop
      vertex   -1.132000e+002 6.415000e+001 2.900000e+001
      vertex   -1.132000e+002 4.576667e+001 3.000000e+000
      vertex   -1.132000e+002 1.900000e+001 2.900000e+001
    endloop
  endfacet
  facet normal -1.000000e+000 -0.000000e+000 -0.000000e+000
    outer loop
      vertex   -1.132000e+002 1.900000e+001 2.900000e+001
      vertex   -1.132000e+002 4.576667e+001 3.000000e+000
      vertex   -1.132000e+002 -7.766667e+000 3.000000e+000
    endloop
  endfacet
  facet normal -1.000000e+000 -0.000000e+000 -0.000000e+000
    outer loop
      vertex   -1.132000e+002 -2.615000e+001 2.900000e+001
      vertex   -1.132000e+002 -7.766667e+000 3.000000e+000
      vertex   -1.132000e+002 -6.130000e+001 2.400000e+001
    endloop
  endfacet
  facet normal -1.000000e+000 -0.000000e+000 -0.000000e+000
    outer loop
      vertex   -1.132000e+002 -7.130000e+001 2.900000e+001
      vertex   -1.132000e+002 -6.130000e+001 2.400000e+001
      vertex   -1.132000e+002 -7.130000e+001 2.400000e+001
    endloop
  endfacet
  facet normal -1.000000e+000 0.000000e+000 -0.000000e+000
    outer loop
      vertex   -1.132000e+002 -7.130000e+001 2.900000e+001
      vertex   -1.132000e+002 -2.615000e+001 2.900000e+001
      vertex   -1.132000e+002 -6.130000e+001 2.400000e+001
    endloop
  endfacet
  facet normal -1.000000e+000 0.000000e+000 0.000000e+000
    outer loop
      vertex   -1.132000e+002 -7.766667e+000 3.000000e+000
      vertex   -1.132000e+002 -6.130000e+001 3.000000e+000
      vertex   -1.132000e+002 -6.130000e+001 2.400000e+001
    endloop
  endfacet
  facet normal -1.000000e+000 0.000000e+000 -0.000000e+000
    outer loop
      vertex   -1.132000e+002 -2.615000e+001 2.900000e+001
      vertex   -1.132000e+002 1.900000e+001 2.900000e+001
      vertex   -1.132000e+002 -7.766667e+000 3.000000e+000
    endloop
  endfacet
  facet normal -4.025738e-016 1.000000e+000 0.000000e+000
    outer loop
      vertex   -1.102000e+002 -6.430000e+001 0.000000e+000
      vertex   -1.455000e+002 -6.430000e+001 0.000000e+000
      vertex   -1.102000e+002 -6.430000e+001 3.000000e+000
    endloop
  endfacet
  facet normal -8.051476e-016 1.000000e+000 4.736952e-015
    outer loop
      vertex   -1.102000e+002 -6.430000e+001 3.000000e+000
      vertex   -1.455000e+002 -6.430000e+001 0.000000e+000
      vertex   -1.455000e+002 -6.430000e+001 3.000000e+000
    endloop
  endfacet
  facet normal -8.051476e-016 1.000000e+000 4.736952e-015
    outer loop
      vertex   -1.455000e+002 -6.430000e+001 3.000000e+000
      vertex   -1.455000e+002 -6.430000e+001 0.000000e+000
      vertex   -1.808000e+002 -6.430000e+001 0.000000e+000
    endloop
  endfacet
  facet normal -4.025738e-016 1.000000e+000 0.000000e+000
    outer loop
      vertex   -1.808000e+002 -6.430000e+001 3.000000e+000
      vertex   -1.455000e+002 -6.430000e+001 3.000000e+000
      vertex   -1.808000e+002 -6.430000e+001 0.000000e+000
    endloop
  endfacet
  facet normal 1.207721e-015 -1.000000e+000 0.000000e+000
    outer loop
      vertex   -1.808000e+002 1.023000e+002 0.000000e+000
      vertex   -1.455000e+002 1.023000e+002 0.000000e+000
      vertex   -1.808000e+002 1.023000e+002 3.000000e+000
    endloop
  endfacet
  facet normal 8.051476e-016 -1.000000e+000 -4.736952e-015
    outer loop
      vertex   -1.808000e+002 1.023000e+002 3.000000e+000
      vertex   -1.455000e+002 1.023000e+002 0.000000e+000
      vertex   -1.455000e+002 1.023000e+002 3.000000e+000
    endloop
  endfacet
  facet normal 4.025738e-016 -1.000000e+000 -4.736952e-015
    outer loop
      vertex   -1.455000e+002 1.023000e+002 3.000000e+000
      vertex   -1.455000e+002 1.023000e+002 0.000000e+000
      vertex   -1.102000e+002 1.023000e+002 0.000000e+000
    endloop
  endfacet
  facet normal 8.051476e-016 -1.000000e+000 0.000000e+000
    outer loop
      vertex   -1.102000e+002 1.023000e+002 3.000000e+000
      vertex   -1.455000e+002 1.023000e+002 3.000000e+000
      vertex   -1.102000e+002 1.023000e+002 0.000000e+000
    endloop
  endfacet
  facet normal -0.000000e+000 0.000000e+000 -1.000000e+000
    outer loop
      vertex   -1.455000e+002 -6.430000e+001 3.000000e+000
      vertex   -1.808000e+002 -6.430000e+001 3.000000e+000
      vertex   -1.778000e+002 -6.130000e+001 3.000000e+000
    endloop
  endfacet
  facet normal -0.000000e+000 -0.000000e+000 -1.000000e+000
    outer loop
      vertex   -1.455000e+002 -6.130000e+001 3.000000e+000
      vertex   -1.455000e+002 -6.430000e+001 3.000000e+000
      vertex   -1.778000e+002 -6.130000e+001 3.000000e+000
    endloop
  endfacet
  facet normal 0.000000e+000 -0.000000e+000 -1.000000e+000
    outer loop
      vertex   -1.455000e+002 -6.130000e+001 3.000000e+000
      vertex   -1.132000e+002 -6.130000e+001 3.000000e+000
      vertex   -1.455000e+002 -6.430000e+001 3.000000e+000
    endloop
  endfacet
  facet normal 0.000000e+000 0.000000e+000 -1.000000e+000
    outer loop
      vertex   -1.455000e+002 -6.430000e+001 3.000000e+000
      vertex   -1.132000e+002 -6.130000e+001 3.000000e+000
      vertex   -1.102000e+002 -6.430000e+001 3.000000e+000
    endloop
  endfacet
  facet normal 0.000000e+000 0.000000e+000 -1.000000e+000
    outer loop
      vertex   -1.102000e+002 -6.430000e+001 3.000000e+000
      vertex   -1.132000e+002 -6.130000e+001 3.000000e+000
      vertex   -1.102000e+002 -8.766667e+000 3.000000e+000
    endloop
  endfacet
  facet normal -0.000000e+000 0.000000e+000 -1.000000e+000
    outer loop
      vertex   -1.102000e+002 -8.766667e+000 3.000000e+000
      vertex   -1.132000e+002 -6.130000e+001 3.000000e+000
      vertex   -1.132000e+002 -7.766667e+000 3.000000e+000
    endloop
  endfacet
  facet normal -0.000000e+000 -0.000000e+000 -1.000000e+000
    outer loop
      vertex   -1.132000e+002 4.576667e+001 3.000000e+000
      vertex   -1.102000e+002 -8.766667e+000 3.000000e+000
      vertex   -1.132000e+002 -7.766667e+000 3.000000e+000
    endloop
  endfacet
  facet normal 0.000000e+000 0.000000e+000 -1.000000e+000
    outer loop
      vertex   -1.132000e+002 4.576667e+001 3.000000e+000
      vertex   -1.102000e+002 4.676667e+001 3.000000e+000
      vertex   -1.102000e+002 -8.766667e+000 3.000000e+000
    endloop
  endfacet
  facet normal 0.000000e+000 0.000000e+000 -1.000000e+000
    outer loop
      vertex   -1.132000e+002 4.576667e+001 3.000000e+000
      vertex   -1.132000e+002 9.930000e+001 3.000000e+000
      vertex   -1.102000e+002 4.676667e+001 3.000000e+000
    endloop
  endfacet
  facet normal 0.000000e+000 0.000000e+000 -1.000000e+000
    outer loop
      vertex   -1.102000e+002 4.676667e+001 3.000000e+000
      vertex   -1.132000e+002 9.930000e+001 3.000000e+000
      vertex   -1.102000e+002 1.023000e+002 3.000000e+000
    endloop
  endfacet
  facet normal -0.000000e+000 0.000000e+000 -1.000000e+000
    outer loop
      vertex   -1.102000e+002 1.023000e+002 3.000000e+000
      vertex   -1.132000e+002 9.930000e+001 3.000000e+000
      vertex   -1.455000e+002 1.023000e+002 3.000000e+000
    endloop
  endfacet
  facet normal 0.000000e+000 -0.000000e+000 -1.000000e+000
    outer loop
      vertex   -1.455000e+002 1.023000e+002 3.000000e+000
      vertex   -1.132000e+002 9.930000e+001 3.000000e+000
      vertex   -1.455000e+002 9.930000e+001 3.000000e+000
    endloop
  endfacet
  facet normal 0.000000e+000 -0.000000e+000 -1.000000e+000
    outer loop
      vertex   -1.778000e+002 9.930000e+001 3.000000e+000
      vertex   -1.455000e+002 1.023000e+002 3.000000e+000
      vertex   -1.455000e+002 9.930000e+001 3.000000e+000
    endloop
  endfacet
  facet normal 0.000000e+000 0.000000e+000 -1.000000e+000
    outer loop
      vertex   -1.778000e+002 9.930000e+001 3.000000e+000
      vertex   -1.808000e+002 1.023000e+002 3.000000e+000
      vertex   -1.455000e+002 1.023000e+002 3.000000e+000
    endloop
  endfacet
  facet normal -0.000000e+000 0.000000e+000 -1.000000e+000
    outer loop
      vertex   -1.778000e+002 9.930000e+001 3.000000e+000
      vertex   -1.808000e+002 4.676667e+001 3.000000e+000
      vertex   -1.808000e+002 1.023000e+002 3.000000e+000
    endloop
  endfacet
  facet normal -0.000000e+000 -0.000000e+000 -1.000000e+000
    outer loop
      vertex   -1.778000e+002 9.930000e+001 3.000000e+000
      vertex   -1.778000e+002 4.576667e+001 3.000000e+000
      vertex   -1.808000e+002 4.676667e+001 3.000000e+000
    endloop
  endfacet
  facet normal 0.000000e+000 -0.000000e+000 -1.000000e+000
    outer loop
      vertex   -1.808000e+002 4.676667e+001 3.000000e+000
      vertex   -1.778000e+002 4.576667e+001 3.000000e+000
      vertex   -1.808000e+002 -8.766667e+000 3.000000e+000
    endloop
  endfacet
  facet normal 0.000000e+000 0.000000e+000 -1.000000e+000
    outer loop
      vertex   -1.808000e+002 -8.766667e+000 3.000000e+000
      vertex   -1.778000e+002 4.576667e+001 3.000000e+000
      vertex   -1.778000e+002 -7.766667e+000 3.000000e+000
    endloop
  endfacet
  facet normal 0.000000e+000 0.000000e+000 -1.000000e+000
    outer loop
      vertex   -1.778000e+002 -6.130000e+001 3.000000e+000
      vertex   -1.808000e+002 -8.766667e+000 3.000000e+000
      vertex   -1.778000e+002 -7.766667e+000 3.000000e+000
    endloop
  endfacet
  facet normal -0.000000e+000 0.000000e+000 -1.000000e+000
    outer loop
      vertex   -1.778000e+002 -6.130000e+001 3.000000e+000
      vertex   -1.808000e+002 -6.430000e+001 3.000000e+000
      vertex   -1.808000e+002 -8.766667e+000 3.000000e+000
    endloop
  endfacet
  facet normal 1.000000e+000 -5.117955e-016 -3.717079e-016
    outer loop
      vertex   -1.102000e+002 -8.766667e+000 3.000000e+000
      vertex   -1.102000e+002 -2.765000e+001 2.900000e+001
      vertex   -1.102000e+002 -6.430000e+001 3.000000e+000
    endloop
  endfacet
  facet normal 1.000000e+000 0.000000e+000 -0.000000e+000
    outer loop
      vertex   -1.102000e+002 -8.766667e+000 3.000000e+000
      vertex   -1.102000e+002 1.900000e+001 2.900000e+001
      vertex   -1.102000e+002 -2.765000e+001 2.900000e+001
    endloop
  endfacet
  facet normal 1.000000e+000 0.000000e+000 -0.000000e+000
    outer loop
      vertex   -1.102000e+002 -8.766667e+000 3.000000e+000
      vertex   -1.102000e+002 4.676667e+001 3.000000e+000
      vertex   -1.102000e+002 1.900000e+001 2.900000e+001
    endloop
  endfacet
  facet normal 1.000000e+000 -0.000000e+000 0.000000e+000
    outer loop
      vertex   -1.102000e+002 1.900000e+001 2.900000e+001
      vertex   -1.102000e+002 4.676667e+001 3.000000e+000
      vertex   -1.102000e+002 6.565000e+001 2.900000e+001
    endloop
  endfacet
  facet normal 1.000000e+000 5.117955e-016 -3.717079e-016
    outer loop
      vertex   -1.102000e+002 6.565000e+001 2.900000e+001
      vertex   -1.102000e+002 4.676667e+001 3.000000e+000
      vertex   -1.102000e+002 1.023000e+002 3.000000e+000
    endloop
  endfacet
  facet normal 1.000000e+000 -2.842171e-015 0.000000e+000
    outer loop
      vertex   -1.102000e+002 1.123000e+002 2.900000e+001
      vertex   -1.102000e+002 1.023000e+002 3.000000e+000
      vertex   -1.102000e+002 1.123000e+002 0.000000e+000
    endloop
  endfacet
  facet normal 1.000000e+000 -1.665004e-031 -1.093143e-015
    outer loop
      vertex   -1.102000e+002 1.123000e+002 2.900000e+001
      vertex   -1.102000e+002 6.565000e+001 2.900000e+001
      vertex   -1.102000e+002 1.023000e+002 3.000000e+000
    endloop
  endfacet
  facet normal 1.000000e+000 -2.842171e-015 0.000000e+000
    outer loop
      vertex   -1.102000e+002 1.023000e+002 3.000000e+000
      vertex   -1.102000e+002 1.023000e+002 0.000000e+000
      vertex   -1.102000e+002 1.123000e+002 0.000000e+000
    endloop
  endfacet
  facet normal 1.000000e+000 1.665004e-031 -1.093143e-015
    outer loop
      vertex   -1.102000e+002 -2.765000e+001 2.900000e+001
      vertex   -1.102000e+002 -7.430000e+001 2.900000e+001
      vertex   -1.102000e+002 -6.430000e+001 3.000000e+000
    endloop
  endfacet
  facet normal 1.000000e+000 2.842171e-015 0.000000e+000
    outer loop
      vertex   -1.102000e+002 -6.430000e+001 3.000000e+000
      vertex   -1.102000e+002 -7.430000e+001 2.900000e+001
      vertex   -1.102000e+002 -7.430000e+001 0.000000e+000
    endloop
  endfacet
  facet normal 1.000000e+000 2.842171e-015 -0.000000e+000
    outer loop
      vertex   -1.102000e+002 -6.430000e+001 0.000000e+000
      vertex   -1.102000e+002 -6.430000e+001 3.000000e+000
      vertex   -1.102000e+002 -7.430000e+001 0.000000e+000
    endloop
  endfacet
  facet normal -0.000000e+000 0.000000e+000 -1.000000e+000
    outer loop
      vertex   -1.102000e+002 1.023000e+002 0.000000e+000
      vertex   -1.455000e+002 1.023000e+002 0.000000e+000
      vertex   -1.102000e+002 1.123000e+002 0.000000e+000
    endloop
  endfacet
  facet normal -0.000000e+000 0.000000e+000 -1.000000e+000
    outer loop
      vertex   -1.102000e+002 1.123000e+002 0.000000e+000
      vertex   -1.455000e+002 1.023000e+002 0.000000e+000
      vertex   -1.455000e+002 1.123000e+002 0.000000e+000
    endloop
  endfacet
  facet normal 0.000000e+000 -0.000000e+000 -1.000000e+000
    outer loop
      vertex   -1.455000e+002 1.123000e+002 0.000000e+000
      vertex   -1.455000e+002 1.023000e+002 0.000000e+000
      vertex   -1.808000e+002 1.023000e+002 0.000000e+000
    endloop
  endfacet
  facet normal 0.000000e+000 -0.000000e+000 -1.000000e+000
    outer loop
      vertex   -1.808000e+002 1.123000e+002 0.000000e+000
      vertex   -1.455000e+002 1.123000e+002 0.000000e+000
      vertex   -1.808000e+002 1.023000e+002 0.000000e+000
    endloop
  endfacet
  facet normal 0.000000e+000 -0.000000e+000 -1.000000e+000
    outer loop
      vertex   -1.808000e+002 -6.430000e+001 0.000000e+000
      vertex   -1.455000e+002 -6.430000e+001 0.000000e+000
      vertex   -1.808000e+002 -7.430000e+001 0.000000e+000
    endloop
  endfacet
  facet normal 0.000000e+000 0.000000e+000 -1.000000e+000
    outer loop
      vertex   -1.808000e+002 -7.430000e+001 0.000000e+000
      vertex   -1.455000e+002 -6.430000e+001 0.000000e+000
      vertex   -1.455000e+002 -7.430000e+001 0.000000e+000
    endloop
  endfacet
  facet normal 0.000000e+000 0.000000e+000 -1.000000e+000
    outer loop
      vertex   -1.455000e+002 -7.430000e+001 0.000000e+000
      vertex   -1.455000e+002 -6.430000e+001 0.000000e+000
      vertex   -1.102000e+002 -6.430000e+001 0.000000e+000
    endloop
  endfacet
  facet normal 0.000000e+000 0.000000e+000 -1.000000e+000
    outer loop
      vertex   -1.102000e+002 -7.430000e+001 0.000000e+000
      vertex   -1.455000e+002 -7.430000e+001 0.000000e+000
      vertex   -1.102000e+002 -6.430000e+001 0.000000e+000
    endloop
  endfacet
  facet normal -0.000000e+000 -1.000000e+000 -0.000000e+000
    outer loop
      vertex   -1.229967e+002 9.930000e+001 2.400000e+001
      vertex   -1.358014e+002 9.930000e+001 2.400000e+001
      vertex   -1.229967e+002 9.930000e+001 2.300000e+001
    endloop
  endfacet
  facet normal -0.000000e+000 -1.000000e+000 -0.000000e+000
    outer loop
      vertex   -1.229967e+002 9.930000e+001 2.300000e+001
      vertex   -1.358014e+002 9.930000e+001 2.400000e+001
      vertex   -1.358014e+002 9.930000e+001 2.300000e+001
    endloop
  endfacet
  facet normal 0.000000e+000 -1.000000e+000 0.000000e+000
    outer loop
      vertex   -1.455000e+002 9.930000e+001 3.000000e+000
      vertex   -1.358014e+002 9.930000e+001 2.300000e+001
      vertex   -1.427948e+002 9.930000e+001 2.300000e+001
    endloop
  endfacet
  facet normal 0.000000e+000 -1.000000e+000 0.000000e+000
    outer loop
      vertex   -1.478014e+002 9.930000e+001 2.300000e+001
      vertex   -1.427948e+002 9.930000e+001 2.300000e+001
      vertex   -1.478014e+002 9.930000e+001 2.400000e+001
    endloop
  endfacet
  facet normal 0.000000e+000 -1.000000e+000 0.000000e+000
    outer loop
      vertex   -1.478014e+002 9.930000e+001 2.300000e+001
      vertex   -1.455000e+002 9.930000e+001 3.000000e+000
      vertex   -1.427948e+002 9.930000e+001 2.300000e+001
    endloop
  endfacet
  facet normal -0.000000e+000 -1.000000e+000 -0.000000e+000
    outer loop
      vertex   -1.478014e+002 9.930000e+001 2.300000e+001
      vertex   -1.547948e+002 9.930000e+001 2.300000e+001
      vertex   -1.455000e+002 9.930000e+001 3.000000e+000
    endloop
  endfacet
  facet normal 0.000000e+000 -1.000000e+000 0.000000e+000
    outer loop
      vertex   -1.455000e+002 9.930000e+001 3.000000e+000
      vertex   -1.547948e+002 9.930000e+001 2.300000e+001
      vertex   -1.680033e+002 9.930000e+001 2.300000e+001
    endloop
  endfacet
  facet normal 0.000000e+000 -1.000000e+000 0.000000e+000
    outer loop
      vertex   -1.778000e+002 9.930000e+001 3.000000e+000
      vertex   -1.680033e+002 9.930000e+001 2.300000e+001
      vertex   -1.749967e+002 9.930000e+001 2.300000e+001
    endloop
  endfacet
  facet normal 0.000000e+000 -1.000000e+000 0.000000e+000
    outer loop
      vertex   -1.778000e+002 9.930000e+001 2.400000e+001
      vertex   -1.749967e+002 9.930000e+001 2.300000e+001
      vertex   -1.749967e+002 9.930000e+001 2.400000e+001
    endloop
  endfacet
  facet normal 0.000000e+000 -1.000000e+000 0.000000e+000
    outer loop
      vertex   -1.778000e+002 9.930000e+001 2.400000e+001
      vertex   -1.778000e+002 9.930000e+001 3.000000e+000
      vertex   -1.749967e+002 9.930000e+001 2.300000e+001
    endloop
  endfacet
  facet normal -0.000000e+000 -1.000000e+000 0.000000e+000
    outer loop
      vertex   -1.229967e+002 9.930000e+001 2.300000e+001
      vertex   -1.358014e+002 9.930000e+001 2.300000e+001
      vertex   -1.455000e+002 9.930000e+001 3.000000e+000
    endloop
  endfacet
  facet normal 1.319894e-015 -1.000000e+000 -1.485098e-015
    outer loop
      vertex   -1.132000e+002 9.930000e+001 3.000000e+000
      vertex   -1.229967e+002 9.930000e+001 2.300000e+001
      vertex   -1.455000e+002 9.930000e+001 3.000000e+000
    endloop
  endfacet
  facet normal -0.000000e+000 -1.000000e+000 -2.131628e-015
    outer loop
      vertex   -1.132000e+002 9.930000e+001 3.000000e+000
      vertex   -1.160033e+002 9.930000e+001 2.300000e+001
      vertex   -1.229967e+002 9.930000e+001 2.300000e+001
    endloop
  endfacet
  facet normal 7.241882e-016 -1.000000e+000 -2.030122e-015
    outer loop
      vertex   -1.132000e+002 9.930000e+001 3.000000e+000
      vertex   -1.132000e+002 9.930000e+001 2.400000e+001
      vertex   -1.160033e+002 9.930000e+001 2.300000e+001
    endloop
  endfacet
  facet normal 0.000000e+000 -1.000000e+000 0.000000e+000
    outer loop
      vertex   -1.160033e+002 9.930000e+001 2.300000e+001
      vertex   -1.132000e+002 9.930000e+001 2.400000e+001
      vertex   -1.160033e+002 9.930000e+001 2.400000e+001
    endloop
  endfacet
  facet normal 0.000000e+000 -1.000000e+000 0.000000e+000
    outer loop
      vertex   -1.427948e+002 9.930000e+001 2.300000e+001
      vertex   -1.427948e+002 9.930000e+001 2.400000e+001
      vertex   -1.478014e+002 9.930000e+001 2.400000e+001
    endloop
  endfacet
  facet normal -0.000000e+000 -1.000000e+000 -0.000000e+000
    outer loop
      vertex   -1.547948e+002 9.930000e+001 2.400000e+001
      vertex   -1.680033e+002 9.930000e+001 2.400000e+001
      vertex   -1.547948e+002 9.930000e+001 2.300000e+001
    endloop
  endfacet
  facet normal -0.000000e+000 -1.000000e+000 -0.000000e+000
    outer loop
      vertex   -1.547948e+002 9.930000e+001 2.300000e+001
      vertex   -1.680033e+002 9.930000e+001 2.400000e+001
      vertex   -1.680033e+002 9.930000e+001 2.300000e+001
    endloop
  endfacet
  facet normal -0.000000e+000 -1.000000e+000 0.000000e+000
    outer loop
      vertex   -1.455000e+002 9.930000e+001 3.000000e+000
      vertex   -1.680033e+002 9.930000e+001 2.300000e+001
      vertex   -1.778000e+002 9.930000e+001 3.000000e+000
    endloop
  endfacet
  facet normal -0.000000e+000 1.000000e+000 0.000000e+000
    outer loop
      vertex   -1.160033e+002 -6.130000e+001 2.400000e+001
      vertex   -1.132000e+002 -6.130000e+001 2.400000e+001
      vertex   -1.160033e+002 -6.130000e+001 2.300000e+001
    endloop
  endfacet
  facet normal -3.620941e-016 1.000000e+000 1.015061e-015
    outer loop
      vertex   -1.160033e+002 -6.130000e+001 2.300000e+001
      vertex   -1.132000e+002 -6.130000e+001 2.400000e+001
      vertex   -1.132000e+002 -6.130000e+001 3.000000e+000
    endloop
  endfacet
  facet normal -6.599468e-016 1.000000e+000 7.425492e-016
    outer loop
      vertex   -1.229967e+002 -6.130000e+001 2.300000e+001
      vertex   -1.132000e+002 -6.130000e+001 3.000000e+000
      vertex   -1.455000e+002 -6.130000e+001 3.000000e+000
    endloop
  endfacet
  facet normal 0.000000e+000 1.000000e+000 -0.000000e+000
    outer loop
      vertex   -1.358014e+002 -6.130000e+001 2.300000e+001
      vertex   -1.455000e+002 -6.130000e+001 3.000000e+000
      vertex   -1.427948e+002 -6.130000e+001 2.300000e+001
    endloop
  endfacet
  facet normal -0.000000e+000 1.000000e+000 0.000000e+000
    outer loop
      vertex   -1.358014e+002 -6.130000e+001 2.300000e+001
      vertex   -1.229967e+002 -6.130000e+001 2.300000e+001
      vertex   -1.455000e+002 -6.130000e+001 3.000000e+000
    endloop
  endfacet
  facet normal -0.000000e+000 1.000000e+000 0.000000e+000
    outer loop
      vertex   -1.358014e+002 -6.130000e+001 2.300000e+001
      vertex   -1.229967e+002 -6.130000e+001 2.400000e+001
      vertex   -1.229967e+002 -6.130000e+001 2.300000e+001
    endloop
  endfacet
  facet normal 0.000000e+000 1.000000e+000 0.000000e+000
    outer loop
      vertex   -1.358014e+002 -6.130000e+001 2.300000e+001
      vertex   -1.358014e+002 -6.130000e+001 2.400000e+001
      vertex   -1.229967e+002 -6.130000e+001 2.400000e+001
    endloop
  endfacet
  facet normal 0.000000e+000 1.000000e+000 1.065814e-015
    outer loop
      vertex   -1.160033e+002 -6.130000e+001 2.300000e+001
      vertex   -1.132000e+002 -6.130000e+001 3.000000e+000
      vertex   -1.229967e+002 -6.130000e+001 2.300000e+001
    endloop
  endfacet
  facet normal -4.399645e-016 1.000000e+000 -4.950328e-016
    outer loop
      vertex   -1.778000e+002 -6.130000e+001 3.000000e+000
      vertex   -1.680033e+002 -6.130000e+001 2.300000e+001
      vertex   -1.455000e+002 -6.130000e+001 3.000000e+000
    endloop
  endfacet
  facet normal 0.000000e+000 1.000000e+000 -7.105427e-016
    outer loop
      vertex   -1.778000e+002 -6.130000e+001 3.000000e+000
      vertex   -1.749967e+002 -6.130000e+001 2.300000e+001
      vertex   -1.680033e+002 -6.130000e+001 2.300000e+001
    endloop
  endfacet
  facet normal -2.413961e-016 1.000000e+000 -6.767074e-016
    outer loop
      vertex   -1.778000e+002 -6.130000e+001 3.000000e+000
      vertex   -1.778000e+002 -6.130000e+001 2.400000e+001
      vertex   -1.749967e+002 -6.130000e+001 2.300000e+001
    endloop
  endfacet
  facet normal 0.000000e+000 1.000000e+000 -0.000000e+000
    outer loop
      vertex   -1.749967e+002 -6.130000e+001 2.300000e+001
      vertex   -1.778000e+002 -6.130000e+001 2.400000e+001
      vertex   -1.749967e+002 -6.130000e+001 2.400000e+001
    endloop
  endfacet
  facet normal -0.000000e+000 1.000000e+000 0.000000e+000
    outer loop
      vertex   -1.680033e+002 -6.130000e+001 2.400000e+001
      vertex   -1.547948e+002 -6.130000e+001 2.400000e+001
      vertex   -1.680033e+002 -6.130000e+001 2.300000e+001
    endloop
  endfacet
  facet normal -0.000000e+000 1.000000e+000 0.000000e+000
    outer loop
      vertex   -1.680033e+002 -6.130000e+001 2.300000e+001
      vertex   -1.547948e+002 -6.130000e+001 2.400000e+001
      vertex   -1.547948e+002 -6.130000e+001 2.300000e+001
    endloop
  endfacet
  facet normal 0.000000e+000 1.000000e+000 -0.000000e+000
    outer loop
      vertex   -1.455000e+002 -6.130000e+001 3.000000e+000
      vertex   -1.547948e+002 -6.130000e+001 2.300000e+001
      vertex   -1.478014e+002 -6.130000e+001 2.300000e+001
    endloop
  endfacet
  facet normal 0.000000e+000 1.000000e+000 -0.000000e+000
    outer loop
      vertex   -1.427948e+002 -6.130000e+001 2.300000e+001
      vertex   -1.478014e+002 -6.130000e+001 2.300000e+001
      vertex   -1.427948e+002 -6.130000e+001 2.400000e+001
    endloop
  endfacet
  facet normal 0.000000e+000 1.000000e+000 0.000000e+000
    outer loop
      vertex   -1.427948e+002 -6.130000e+001 2.300000e+001
      vertex   -1.455000e+002 -6.130000e+001 3.000000e+000
      vertex   -1.478014e+002 -6.130000e+001 2.300000e+001
    endloop
  endfacet
  facet normal -0.000000e+000 1.000000e+000 0.000000e+000
    outer loop
      vertex   -1.680033e+002 -6.130000e+001 2.300000e+001
      vertex   -1.547948e+002 -6.130000e+001 2.300000e+001
      vertex   -1.455000e+002 -6.130000e+001 3.000000e+000
    endloop
  endfacet
  facet normal 0.000000e+000 1.000000e+000 0.000000e+000
    outer loop
      vertex   -1.478014e+002 -6.130000e+001 2.300000e+001
      vertex   -1.478014e+002 -6.130000e+001 2.400000e+001
      vertex   -1.427948e+002 -6.130000e+001 2.400000e+001
    endloop
  endfacet
  facet normal 0.000000e+000 1.000000e+000 -0.000000e+000
    outer loop
      vertex   -1.132000e+002 -7.130000e+001 2.400000e+001
      vertex   -1.160033e+002 -7.130000e+001 2.400000e+001
      vertex   -1.132000e+002 -7.130000e+001 2.900000e+001
    endloop
  endfacet
  facet normal 0.000000e+000 1.000000e+000 0.000000e+000
    outer loop
      vertex   -1.132000e+002 -7.130000e+001 2.900000e+001
      vertex   -1.160033e+002 -7.130000e+001 2.400000e+001
      vertex   -1.229967e+002 -7.130000e+001 2.400000e+001
    endloop
  endfacet
  facet normal 0.000000e+000 1.000000e+000 0.000000e+000
    outer loop
      vertex   -1.455000e+002 -7.130000e+001 2.900000e+001
      vertex   -1.229967e+002 -7.130000e+001 2.400000e+001
      vertex   -1.358014e+002 -7.130000e+001 2.400000e+001
    endloop
  endfacet
  facet normal 0.000000e+000 1.000000e+000 -9.536752e-007
    outer loop
      vertex   -1.427948e+002 -7.130000e+001 2.400000e+001
      vertex   -1.358014e+002 -7.130000e+001 2.400000e+001
      vertex   -1.427948e+002 -7.130000e+001 2.300000e+001
    endloop
  endfacet
  facet normal -0.000000e+000 1.000000e+000 -0.000000e+000
    outer loop
      vertex   -1.427948e+002 -7.130000e+001 2.400000e+001
      vertex   -1.455000e+002 -7.130000e+001 2.900000e+001
      vertex   -1.358014e+002 -7.130000e+001 2.400000e+001
    endloop
  endfacet
  facet normal 0.000000e+000 1.000000e+000 -0.000000e+000
    outer loop
      vertex   -1.427948e+002 -7.130000e+001 2.400000e+001
      vertex   -1.478014e+002 -7.130000e+001 2.400000e+001
      vertex   -1.455000e+002 -7.130000e+001 2.900000e+001
    endloop
  endfacet
  facet normal 0.000000e+000 1.000000e+000 0.000000e+000
    outer loop
      vertex   -1.455000e+002 -7.130000e+001 2.900000e+001
      vertex   -1.478014e+002 -7.130000e+001 2.400000e+001
      vertex   -1.547948e+002 -7.130000e+001 2.400000e+001
    endloop
  endfacet
  facet normal -0.000000e+000 1.000000e+000 0.000000e+000
    outer loop
      vertex   -1.680033e+002 -7.130000e+001 2.400000e+001
      vertex   -1.455000e+002 -7.130000e+001 2.900000e+001
      vertex   -1.547948e+002 -7.130000e+001 2.400000e+001
    endloop
  endfacet
  facet normal 4.399645e-016 1.000000e+000 -1.980131e-015
    outer loop
      vertex   -1.680033e+002 -7.130000e+001 2.400000e+001
      vertex   -1.778000e+002 -7.130000e+001 2.900000e+001
      vertex   -1.455000e+002 -7.130000e+001 2.900000e+001
    endloop
  endfacet
  facet normal 0.000000e+000 1.000000e+000 -2.842171e-015
    outer loop
      vertex   -1.680033e+002 -7.130000e+001 2.400000e+001
      vertex   -1.749967e+002 -7.130000e+001 2.400000e+001
      vertex   -1.778000e+002 -7.130000e+001 2.900000e+001
    endloop
  endfacet
  facet normal 0.000000e+000 1.000000e+000 -9.536752e-007
    outer loop
      vertex   -1.680033e+002 -7.130000e+001 2.400000e+001
      vertex   -1.749967e+002 -7.130000e+001 2.300000e+001
      vertex   -1.749967e+002 -7.130000e+001 2.400000e+001
    endloop
  endfacet
  facet normal 0.000000e+000 1.000000e+000 -9.536752e-007
    outer loop
      vertex   -1.680033e+002 -7.130000e+001 2.400000e+001
      vertex   -1.680033e+002 -7.130000e+001 2.300000e+001
      vertex   -1.749967e+002 -7.130000e+001 2.300000e+001
    endloop
  endfacet
  facet normal 0.000000e+000 1.000000e+000 -9.536752e-007
    outer loop
      vertex   -1.160033e+002 -7.130000e+001 2.300000e+001
      vertex   -1.229967e+002 -7.130000e+001 2.300000e+001
      vertex   -1.160033e+002 -7.130000e+001 2.400000e+001
    endloop
  endfacet
  facet normal 0.000000e+000 1.000000e+000 -9.536752e-007
    outer loop
      vertex   -1.160033e+002 -7.130000e+001 2.400000e+001
      vertex   -1.229967e+002 -7.130000e+001 2.300000e+001
      vertex   -1.229967e+002 -7.130000e+001 2.400000e+001
    endloop
  endfacet
  facet normal 0.000000e+000 1.000000e+000 0.000000e+000
    outer loop
      vertex   -1.132000e+002 -7.130000e+001 2.900000e+001
      vertex   -1.229967e+002 -7.130000e+001 2.400000e+001
      vertex   -1.455000e+002 -7.130000e+001 2.900000e+001
    endloop
  endfacet
  facet normal 0.000000e+000 1.000000e+000 -9.536752e-007
    outer loop
      vertex   -1.358014e+002 -7.130000e+001 2.400000e+001
      vertex   -1.358014e+002 -7.130000e+001 2.300000e+001
      vertex   -1.427948e+002 -7.130000e+001 2.300000e+001
    endloop
  endfacet
  facet normal 0.000000e+000 1.000000e+000 -9.536752e-007
    outer loop
      vertex   -1.478014e+002 -7.130000e+001 2.300000e+001
      vertex   -1.547948e+002 -7.130000e+001 2.300000e+001
      vertex   -1.478014e+002 -7.130000e+001 2.400000e+001
    endloop
  endfacet
  facet normal 0.000000e+000 1.000000e+000 -9.536752e-007
    outer loop
      vertex   -1.478014e+002 -7.130000e+001 2.400000e+001
      vertex   -1.547948e+002 -7.130000e+001 2.300000e+001
      vertex   -1.547948e+002 -7.130000e+001 2.400000e+001
    endloop
  endfacet
  facet normal 5.069323e-015 1.000000e+000 -0.000000e+000
    outer loop
      vertex   -1.749967e+002 -7.130000e+001 2.400000e+001
      vertex   -1.778000e+002 -7.130000e+001 2.400000e+001
      vertex   -1.778000e+002 -7.130000e+001 2.900000e+001
    endloop
  endfacet
  facet normal 0.000000e+000 -1.000000e+000 0.000000e+000
    outer loop
      vertex   -1.808000e+002 -7.430000e+001 0.000000e+000
      vertex   -1.455000e+002 -7.430000e+001 0.000000e+000
      vertex   -1.808000e+002 -7.430000e+001 2.900000e+001
    endloop
  endfacet
  facet normal 0.000000e+000 -1.000000e+000 0.000000e+000
    outer loop
      vertex   -1.808000e+002 -7.430000e+001 2.900000e+001
      vertex   -1.455000e+002 -7.430000e+001 0.000000e+000
      vertex   -1.455000e+002 -7.430000e+001 2.900000e+001
    endloop
  endfacet
  facet normal 0.000000e+000 -1.000000e+000 0.000000e+000
    outer loop
      vertex   -1.455000e+002 -7.430000e+001 2.900000e+001
      vertex   -1.455000e+002 -7.430000e+001 0.000000e+000
      vertex   -1.102000e+002 -7.430000e+001 0.000000e+000
    endloop
  endfacet
  facet normal -0.000000e+000 -1.000000e+000 -0.000000e+000
    outer loop
      vertex   -1.102000e+002 -7.430000e+001 2.900000e+001
      vertex   -1.455000e+002 -7.430000e+001 2.900000e+001
      vertex   -1.102000e+002 -7.430000e+001 0.000000e+000
    endloop
  endfacet
  facet normal 0.000000e+000 1.000000e+000 -0.000000e+000
    outer loop
      vertex   -1.102000e+002 1.123000e+002 0.000000e+000
      vertex   -1.455000e+002 1.123000e+002 0.000000e+000
      vertex   -1.102000e+002 1.123000e+002 2.900000e+001
    endloop
  endfacet
  facet normal 0.000000e+000 1.000000e+000 -0.000000e+000
    outer loop
      vertex   -1.102000e+002 1.123000e+002 2.900000e+001
      vertex   -1.455000e+002 1.123000e+002 0.000000e+000
      vertex   -1.455000e+002 1.123000e+002 2.900000e+001
    endloop
  endfacet
  facet normal -8.051476e-016 1.000000e+000 0.000000e+000
    outer loop
      vertex   -1.455000e+002 1.123000e+002 2.900000e+001
      vertex   -1.455000e+002 1.123000e+002 0.000000e+000
      vertex   -1.808000e+002 1.123000e+002 0.000000e+000
    endloop
  endfacet
  facet normal 1.972730e-031 1.000000e+000 -9.800589e-016
    outer loop
      vertex   -1.808000e+002 1.123000e+002 2.900000e+001
      vertex   -1.455000e+002 1.123000e+002 2.900000e+001
      vertex   -1.808000e+002 1.123000e+002 0.000000e+000
    endloop
  endfacet
endsolid
