solid ascii
  facet normal -1.000000e+000 0.000000e+000 0.000000e+000
    outer loop
      vertex   -6.000000e+001 6.800000e+001 0.000000e+000
      vertex   -6.000000e+001 6.800000e+001 1.900000e+000
      vertex   -6.000000e+001 7.200000e+001 0.000000e+000
    endloop
  endfacet
  facet normal -1.000000e+000 0.000000e+000 0.000000e+000
    outer loop
      vertex   -6.000000e+001 7.200000e+001 0.000000e+000
      vertex   -6.000000e+001 6.800000e+001 1.900000e+000
      vertex   -6.000000e+001 7.200000e+001 1.900000e+000
    endloop
  endfacet
  facet normal 0.000000e+000 0.000000e+000 -1.000000e+000
    outer loop
      vertex   -6.000000e+001 6.800000e+001 1.900000e+000
      vertex   -1.000000e+002 6.800000e+001 1.900000e+000
      vertex   -6.000000e+001 7.200000e+001 1.900000e+000
    endloop
  endfacet
  facet normal -0.000000e+000 0.000000e+000 -1.000000e+000
    outer loop
      vertex   -6.000000e+001 7.200000e+001 1.900000e+000
      vertex   -1.000000e+002 6.800000e+001 1.900000e+000
      vertex   -1.000000e+002 7.200000e+001 1.900000e+000
    endloop
  endfacet
  facet normal 1.000000e+000 0.000000e+000 -0.000000e+000
    outer loop
      vertex   -1.000000e+002 7.200000e+001 0.000000e+000
      vertex   -1.000000e+002 7.200000e+001 1.900000e+000
      vertex   -1.000000e+002 6.800000e+001 0.000000e+000
    endloop
  endfacet
  facet normal 1.000000e+000 0.000000e+000 -0.000000e+000
    outer loop
      vertex   -1.000000e+002 6.800000e+001 0.000000e+000
      vertex   -1.000000e+002 7.200000e+001 1.900000e+000
      vertex   -1.000000e+002 6.800000e+001 1.900000e+000
    endloop
  endfacet
  facet normal -0.000000e+000 -1.000000e+000 0.000000e+000
    outer loop
      vertex   -1.000000e+002 6.800000e+001 0.000000e+000
      vertex   -1.000000e+002 6.800000e+001 1.900000e+000
      vertex   -1.050000e+002 6.800000e+001 0.000000e+000
    endloop
  endfacet
  facet normal 0.000000e+000 -1.000000e+000 0.000000e+000
    outer loop
      vertex   -1.050000e+002 6.800000e+001 0.000000e+000
      vertex   -1.000000e+002 6.800000e+001 1.900000e+000
      vertex   -1.050000e+002 6.800000e+001 4.000000e+000
    endloop
  endfacet
  facet normal 0.000000e+000 -1.000000e+000 0.000000e+000
    outer loop
      vertex   -1.050000e+002 6.800000e+001 4.000000e+000
      vertex   -1.000000e+002 6.800000e+001 1.900000e+000
      vertex   -6.000000e+001 6.800000e+001 1.900000e+000
    endloop
  endfacet
  facet normal 0.000000e+000 -1.000000e+000 -0.000000e+000
    outer loop
      vertex   -5.500000e+001 6.800000e+001 4.000000e+000
      vertex   -6.000000e+001 6.800000e+001 1.900000e+000
      vertex   -5.500000e+001 6.800000e+001 0.000000e+000
    endloop
  endfacet
  facet normal -0.000000e+000 -1.000000e+000 -0.000000e+000
    outer loop
      vertex   -5.500000e+001 6.800000e+001 4.000000e+000
      vertex   -1.050000e+002 6.800000e+001 4.000000e+000
      vertex   -6.000000e+001 6.800000e+001 1.900000e+000
    endloop
  endfacet
  facet normal 0.000000e+000 -1.000000e+000 0.000000e+000
    outer loop
      vertex   -6.000000e+001 6.800000e+001 1.900000e+000
      vertex   -6.000000e+001 6.800000e+001 0.000000e+000
      vertex   -5.500000e+001 6.800000e+001 0.000000e+000
    endloop
  endfacet
  facet normal 0.000000e+000 -0.000000e+000 -1.000000e+000
    outer loop
      vertex   -6.000000e+001 7.200000e+001 0.000000e+000
      vertex   -5.500000e+001 7.200000e+001 0.000000e+000
      vertex   -6.000000e+001 6.800000e+001 0.000000e+000
    endloop
  endfacet
  facet normal 0.000000e+000 0.000000e+000 -1.000000e+000
    outer loop
      vertex   -6.000000e+001 6.800000e+001 0.000000e+000
      vertex   -5.500000e+001 7.200000e+001 0.000000e+000
      vertex   -5.500000e+001 6.800000e+001 0.000000e+000
    endloop
  endfacet
  facet normal 0.000000e+000 0.000000e+000 1.000000e+000
    outer loop
      vertex   -5.500000e+001 7.200000e+001 4.000000e+000
      vertex   -1.050000e+002 7.200000e+001 4.000000e+000
      vertex   -5.500000e+001 6.800000e+001 4.000000e+000
    endloop
  endfacet
  facet normal 0.000000e+000 0.000000e+000 1.000000e+000
    outer loop
      vertex   -5.500000e+001 6.800000e+001 4.000000e+000
      vertex   -1.050000e+002 7.200000e+001 4.000000e+000
      vertex   -1.050000e+002 6.800000e+001 4.000000e+000
    endloop
  endfacet
  facet normal 0.000000e+000 0.000000e+000 -1.000000e+000
    outer loop
      vertex   -1.000000e+002 6.800000e+001 0.000000e+000
      vertex   -1.050000e+002 6.800000e+001 0.000000e+000
      vertex   -1.000000e+002 7.200000e+001 0.000000e+000
    endloop
  endfacet
  facet normal -0.000000e+000 0.000000e+000 -1.000000e+000
    outer loop
      vertex   -1.000000e+002 7.200000e+001 0.000000e+000
      vertex   -1.050000e+002 6.800000e+001 0.000000e+000
      vertex   -1.050000e+002 7.200000e+001 0.000000e+000
    endloop
  endfacet
  facet normal -1.000000e+000 -0.000000e+000 -0.000000e+000
    outer loop
      vertex   -1.050000e+002 7.200000e+001 4.000000e+000
      vertex   -1.050000e+002 7.200000e+001 0.000000e+000
      vertex   -1.050000e+002 6.800000e+001 4.000000e+000
    endloop
  endfacet
  facet normal -1.000000e+000 -0.000000e+000 -0.000000e+000
    outer loop
      vertex   -1.050000e+002 6.800000e+001 4.000000e+000
      vertex   -1.050000e+002 7.200000e+001 0.000000e+000
      vertex   -1.050000e+002 6.800000e+001 0.000000e+000
    endloop
  endfacet
  facet normal 0.000000e+000 1.000000e+000 -0.000000e+000
    outer loop
      vertex   -1.000000e+002 7.200000e+001 0.000000e+000
      vertex   -1.050000e+002 7.200000e+001 0.000000e+000
      vertex   -1.000000e+002 7.200000e+001 1.900000e+000
    endloop
  endfacet
  facet normal 0.000000e+000 1.000000e+000 -0.000000e+000
    outer loop
      vertex   -1.000000e+002 7.200000e+001 1.900000e+000
      vertex   -1.050000e+002 7.200000e+001 0.000000e+000
      vertex   -1.050000e+002 7.200000e+001 4.000000e+000
    endloop
  endfacet
  facet normal 0.000000e+000 1.000000e+000 -0.000000e+000
    outer loop
      vertex   -6.000000e+001 7.200000e+001 1.900000e+000
      vertex   -1.050000e+002 7.200000e+001 4.000000e+000
      vertex   -5.500000e+001 7.200000e+001 4.000000e+000
    endloop
  endfacet
  facet normal 0.000000e+000 1.000000e+000 -0.000000e+000
    outer loop
      vertex   -5.500000e+001 7.200000e+001 0.000000e+000
      vertex   -6.000000e+001 7.200000e+001 1.900000e+000
      vertex   -5.500000e+001 7.200000e+001 4.000000e+000
    endloop
  endfacet
  facet normal 0.000000e+000 1.000000e+000 -0.000000e+000
    outer loop
      vertex   -5.500000e+001 7.200000e+001 0.000000e+000
      vertex   -6.000000e+001 7.200000e+001 0.000000e+000
      vertex   -6.000000e+001 7.200000e+001 1.900000e+000
    endloop
  endfacet
  facet normal -0.000000e+000 1.000000e+000 -0.000000e+000
    outer loop
      vertex   -1.000000e+002 7.200000e+001 1.900000e+000
      vertex   -1.050000e+002 7.200000e+001 4.000000e+000
      vertex   -6.000000e+001 7.200000e+001 1.900000e+000
    endloop
  endfacet
  facet normal 1.000000e+000 -0.000000e+000 0.000000e+000
    outer loop
      vertex   -5.500000e+001 6.800000e+001 4.000000e+000
      vertex   -5.500000e+001 6.800000e+001 0.000000e+000
      vertex   -5.500000e+001 7.200000e+001 4.000000e+000
    endloop
  endfacet
  facet normal 1.000000e+000 -0.000000e+000 0.000000e+000
    outer loop
      vertex   -5.500000e+001 7.200000e+001 4.000000e+000
      vertex   -5.500000e+001 6.800000e+001 0.000000e+000
      vertex   -5.500000e+001 7.200000e+001 0.000000e+000
    endloop
  endfacet
endsolid
