solid ascii
  facet normal -0.000000e+000 1.000000e+000 0.000000e+000
    outer loop
      vertex   -2.150000e+001 7.100000e+001 4.000000e+000
      vertex   -2.050000e+001 7.100000e+001 4.000000e+000
      vertex   -2.150000e+001 7.100000e+001 1.500000e+000
    endloop
  endfacet
  facet normal -0.000000e+000 1.000000e+000 0.000000e+000
    outer loop
      vertex   -2.150000e+001 7.100000e+001 1.500000e+000
      vertex   -2.050000e+001 7.100000e+001 4.000000e+000
      vertex   -2.050000e+001 7.100000e+001 8.881784e-015
    endloop
  endfacet
  facet normal 0.000000e+000 1.000000e+000 0.000000e+000
    outer loop
      vertex   -2.425000e+001 7.100000e+001 1.000000e+000
      vertex   -2.050000e+001 7.100000e+001 8.881784e-015
      vertex   -3.550000e+001 7.100000e+001 0.000000e+000
    endloop
  endfacet
  facet normal 0.000000e+000 1.000000e+000 -0.000000e+000
    outer loop
      vertex   -3.175000e+001 7.100000e+001 1.000000e+000
      vertex   -3.550000e+001 7.100000e+001 0.000000e+000
      vertex   -3.450000e+001 7.100000e+001 1.500000e+000
    endloop
  endfacet
  facet normal 0.000000e+000 1.000000e+000 0.000000e+000
    outer loop
      vertex   -3.175000e+001 7.100000e+001 1.500000e+000
      vertex   -3.175000e+001 7.100000e+001 1.000000e+000
      vertex   -3.450000e+001 7.100000e+001 1.500000e+000
    endloop
  endfacet
  facet normal 0.000000e+000 1.000000e+000 0.000000e+000
    outer loop
      vertex   -2.150000e+001 7.100000e+001 1.500000e+000
      vertex   -2.050000e+001 7.100000e+001 8.881784e-015
      vertex   -2.425000e+001 7.100000e+001 1.000000e+000
    endloop
  endfacet
  facet normal -0.000000e+000 1.000000e+000 0.000000e+000
    outer loop
      vertex   -2.425000e+001 7.100000e+001 1.500000e+000
      vertex   -2.150000e+001 7.100000e+001 1.500000e+000
      vertex   -2.425000e+001 7.100000e+001 1.000000e+000
    endloop
  endfacet
  facet normal -0.000000e+000 1.000000e+000 0.000000e+000
    outer loop
      vertex   -3.550000e+001 7.100000e+001 0.000000e+000
      vertex   -3.550000e+001 7.100000e+001 4.000000e+000
      vertex   -3.450000e+001 7.100000e+001 1.500000e+000
    endloop
  endfacet
  facet normal 0.000000e+000 1.000000e+000 -0.000000e+000
    outer loop
      vertex   -3.450000e+001 7.100000e+001 1.500000e+000
      vertex   -3.550000e+001 7.100000e+001 4.000000e+000
      vertex   -3.450000e+001 7.100000e+001 4.000000e+000
    endloop
  endfacet
  facet normal -0.000000e+000 1.000000e+000 0.000000e+000
    outer loop
      vertex   -3.175000e+001 7.100000e+001 1.000000e+000
      vertex   -2.425000e+001 7.100000e+001 1.000000e+000
      vertex   -3.550000e+001 7.100000e+001 0.000000e+000
    endloop
  endfacet
  facet normal 5.921189e-016 1.502592e-031 -1.000000e+000
    outer loop
      vertex   -2.050000e+001 7.100000e+001 8.881784e-015
      vertex   -2.050000e+001 2.900000e+001 8.881784e-015
      vertex   -3.550000e+001 7.100000e+001 0.000000e+000
    endloop
  endfacet
  facet normal 5.921189e-016 1.202074e-031 -1.000000e+000
    outer loop
      vertex   -3.550000e+001 7.100000e+001 0.000000e+000
      vertex   -2.050000e+001 2.900000e+001 8.881784e-015
      vertex   -3.550000e+001 2.900000e+001 0.000000e+000
    endloop
  endfacet
  facet normal 0.000000e+000 -0.000000e+000 1.000000e+000
    outer loop
      vertex   -3.175000e+001 2.900000e+001 1.000000e+000
      vertex   -2.425000e+001 2.900000e+001 1.000000e+000
      vertex   -3.175000e+001 7.100000e+001 1.000000e+000
    endloop
  endfacet
  facet normal -0.000000e+000 0.000000e+000 1.000000e+000
    outer loop
      vertex   -3.175000e+001 7.100000e+001 1.000000e+000
      vertex   -2.425000e+001 2.900000e+001 1.000000e+000
      vertex   -2.425000e+001 7.100000e+001 1.000000e+000
    endloop
  endfacet
  facet normal 1.000000e+000 0.000000e+000 -2.842171e-015
    outer loop
      vertex   -3.450000e+001 5.600000e+001 4.000000e+000
      vertex   -3.450000e+001 5.600000e+001 1.500000e+000
      vertex   -3.450000e+001 7.100000e+001 4.000000e+000
    endloop
  endfacet
  facet normal 1.000000e+000 0.000000e+000 -2.842171e-015
    outer loop
      vertex   -3.450000e+001 7.100000e+001 4.000000e+000
      vertex   -3.450000e+001 5.600000e+001 1.500000e+000
      vertex   -3.450000e+001 7.100000e+001 1.500000e+000
    endloop
  endfacet
  facet normal -1.000000e+000 -0.000000e+000 -0.000000e+000
    outer loop
      vertex   -2.150000e+001 7.100000e+001 4.000000e+000
      vertex   -2.150000e+001 7.100000e+001 1.500000e+000
      vertex   -2.150000e+001 5.600000e+001 4.000000e+000
    endloop
  endfacet
  facet normal -1.000000e+000 -0.000000e+000 -0.000000e+000
    outer loop
      vertex   -2.150000e+001 5.600000e+001 4.000000e+000
      vertex   -2.150000e+001 7.100000e+001 1.500000e+000
      vertex   -2.150000e+001 5.600000e+001 1.500000e+000
    endloop
  endfacet
  facet normal 0.000000e+000 -0.000000e+000 1.000000e+000
    outer loop
      vertex   -3.175000e+001 5.400000e+001 1.500000e+000
      vertex   -3.175000e+001 7.100000e+001 1.500000e+000
      vertex   -3.375000e+001 5.600000e+001 1.500000e+000
    endloop
  endfacet
  facet normal 0.000000e+000 -0.000000e+000 1.000000e+000
    outer loop
      vertex   -3.375000e+001 5.600000e+001 1.500000e+000
      vertex   -3.175000e+001 7.100000e+001 1.500000e+000
      vertex   -3.450000e+001 7.100000e+001 1.500000e+000
    endloop
  endfacet
  facet normal 0.000000e+000 -0.000000e+000 1.000000e+000
    outer loop
      vertex   -3.450000e+001 5.600000e+001 1.500000e+000
      vertex   -3.375000e+001 5.600000e+001 1.500000e+000
      vertex   -3.450000e+001 7.100000e+001 1.500000e+000
    endloop
  endfacet
  facet normal 0.000000e+000 -0.000000e+000 1.000000e+000
    outer loop
      vertex   -2.425000e+001 5.400000e+001 1.500000e+000
      vertex   -2.225000e+001 5.600000e+001 1.500000e+000
      vertex   -2.425000e+001 7.100000e+001 1.500000e+000
    endloop
  endfacet
  facet normal -0.000000e+000 0.000000e+000 1.000000e+000
    outer loop
      vertex   -2.425000e+001 7.100000e+001 1.500000e+000
      vertex   -2.225000e+001 5.600000e+001 1.500000e+000
      vertex   -2.150000e+001 7.100000e+001 1.500000e+000
    endloop
  endfacet
  facet normal -0.000000e+000 0.000000e+000 1.000000e+000
    outer loop
      vertex   -2.150000e+001 7.100000e+001 1.500000e+000
      vertex   -2.225000e+001 5.600000e+001 1.500000e+000
      vertex   -2.150000e+001 5.600000e+001 1.500000e+000
    endloop
  endfacet
  facet normal -9.473903e-015 1.000000e+000 0.000000e+000
    outer loop
      vertex   -3.375000e+001 5.600000e+001 4.000000e+000
      vertex   -3.375000e+001 5.600000e+001 1.500000e+000
      vertex   -3.450000e+001 5.600000e+001 4.000000e+000
    endloop
  endfacet
  facet normal -9.473903e-015 1.000000e+000 2.692645e-029
    outer loop
      vertex   -3.450000e+001 5.600000e+001 4.000000e+000
      vertex   -3.375000e+001 5.600000e+001 1.500000e+000
      vertex   -3.450000e+001 5.600000e+001 1.500000e+000
    endloop
  endfacet
  facet normal 0.000000e+000 1.000000e+000 0.000000e+000
    outer loop
      vertex   -2.150000e+001 5.600000e+001 4.000000e+000
      vertex   -2.150000e+001 5.600000e+001 1.500000e+000
      vertex   -2.225000e+001 5.600000e+001 4.000000e+000
    endloop
  endfacet
  facet normal 0.000000e+000 1.000000e+000 0.000000e+000
    outer loop
      vertex   -2.225000e+001 5.600000e+001 4.000000e+000
      vertex   -2.150000e+001 5.600000e+001 1.500000e+000
      vertex   -2.225000e+001 5.600000e+001 1.500000e+000
    endloop
  endfacet
  facet normal -1.000000e+000 -3.383537e-016 -0.000000e+000
    outer loop
      vertex   -3.550000e+001 7.100000e+001 4.000000e+000
      vertex   -3.550000e+001 7.100000e+001 0.000000e+000
      vertex   -3.550000e+001 2.900000e+001 4.000000e+000
    endloop
  endfacet
  facet normal -1.000000e+000 -1.691768e-016 1.776357e-015
    outer loop
      vertex   -3.550000e+001 2.900000e+001 4.000000e+000
      vertex   -3.550000e+001 7.100000e+001 0.000000e+000
      vertex   -3.550000e+001 2.900000e+001 0.000000e+000
    endloop
  endfacet
  facet normal 0.000000e+000 -1.000000e+000 0.000000e+000
    outer loop
      vertex   -2.425000e+001 2.900000e+001 4.000000e+000
      vertex   -2.425000e+001 2.900000e+001 1.000000e+000
      vertex   -2.050000e+001 2.900000e+001 4.000000e+000
    endloop
  endfacet
  facet normal 0.000000e+000 -1.000000e+000 -0.000000e+000
    outer loop
      vertex   -2.050000e+001 2.900000e+001 4.000000e+000
      vertex   -2.425000e+001 2.900000e+001 1.000000e+000
      vertex   -2.050000e+001 2.900000e+001 8.881784e-015
    endloop
  endfacet
  facet normal -0.000000e+000 -1.000000e+000 0.000000e+000
    outer loop
      vertex   -2.050000e+001 2.900000e+001 8.881784e-015
      vertex   -2.425000e+001 2.900000e+001 1.000000e+000
      vertex   -3.550000e+001 2.900000e+001 0.000000e+000
    endloop
  endfacet
  facet normal 0.000000e+000 -1.000000e+000 0.000000e+000
    outer loop
      vertex   -3.550000e+001 2.900000e+001 0.000000e+000
      vertex   -2.425000e+001 2.900000e+001 1.000000e+000
      vertex   -3.175000e+001 2.900000e+001 1.000000e+000
    endloop
  endfacet
  facet normal 0.000000e+000 -1.000000e+000 0.000000e+000
    outer loop
      vertex   -3.550000e+001 2.900000e+001 4.000000e+000
      vertex   -3.175000e+001 2.900000e+001 1.000000e+000
      vertex   -3.175000e+001 2.900000e+001 4.000000e+000
    endloop
  endfacet
  facet normal 0.000000e+000 -1.000000e+000 -0.000000e+000
    outer loop
      vertex   -3.550000e+001 2.900000e+001 4.000000e+000
      vertex   -3.550000e+001 2.900000e+001 0.000000e+000
      vertex   -3.175000e+001 2.900000e+001 1.000000e+000
    endloop
  endfacet
  facet normal 1.000000e+000 0.000000e+000 0.000000e+000
    outer loop
      vertex   -3.175000e+001 5.400000e+001 4.000000e+000
      vertex   -3.175000e+001 2.900000e+001 4.000000e+000
      vertex   -3.175000e+001 5.400000e+001 1.500000e+000
    endloop
  endfacet
  facet normal 1.000000e+000 0.000000e+000 0.000000e+000
    outer loop
      vertex   -3.175000e+001 5.400000e+001 1.500000e+000
      vertex   -3.175000e+001 2.900000e+001 4.000000e+000
      vertex   -3.175000e+001 2.900000e+001 1.000000e+000
    endloop
  endfacet
  facet normal 1.000000e+000 0.000000e+000 0.000000e+000
    outer loop
      vertex   -3.175000e+001 7.100000e+001 1.000000e+000
      vertex   -3.175000e+001 5.400000e+001 1.500000e+000
      vertex   -3.175000e+001 2.900000e+001 1.000000e+000
    endloop
  endfacet
  facet normal 1.000000e+000 0.000000e+000 -0.000000e+000
    outer loop
      vertex   -3.175000e+001 7.100000e+001 1.000000e+000
      vertex   -3.175000e+001 7.100000e+001 1.500000e+000
      vertex   -3.175000e+001 5.400000e+001 1.500000e+000
    endloop
  endfacet
  facet normal 7.071068e-001 7.071068e-001 0.000000e+000
    outer loop
      vertex   -3.175000e+001 5.400000e+001 4.000000e+000
      vertex   -3.175000e+001 5.400000e+001 1.500000e+000
      vertex   -3.375000e+001 5.600000e+001 4.000000e+000
    endloop
  endfacet
  facet normal 7.071068e-001 7.071068e-001 0.000000e+000
    outer loop
      vertex   -3.375000e+001 5.600000e+001 4.000000e+000
      vertex   -3.175000e+001 5.400000e+001 1.500000e+000
      vertex   -3.375000e+001 5.600000e+001 1.500000e+000
    endloop
  endfacet
  facet normal -7.071068e-001 7.071068e-001 0.000000e+000
    outer loop
      vertex   -2.225000e+001 5.600000e+001 4.000000e+000
      vertex   -2.225000e+001 5.600000e+001 1.500000e+000
      vertex   -2.425000e+001 5.400000e+001 4.000000e+000
    endloop
  endfacet
  facet normal -7.071068e-001 7.071068e-001 0.000000e+000
    outer loop
      vertex   -2.425000e+001 5.400000e+001 4.000000e+000
      vertex   -2.225000e+001 5.600000e+001 1.500000e+000
      vertex   -2.425000e+001 5.400000e+001 1.500000e+000
    endloop
  endfacet
  facet normal -1.000000e+000 -0.000000e+000 -0.000000e+000
    outer loop
      vertex   -2.425000e+001 5.400000e+001 4.000000e+000
      vertex   -2.425000e+001 5.400000e+001 1.500000e+000
      vertex   -2.425000e+001 2.900000e+001 4.000000e+000
    endloop
  endfacet
  facet normal -1.000000e+000 0.000000e+000 -0.000000e+000
    outer loop
      vertex   -2.425000e+001 2.900000e+001 4.000000e+000
      vertex   -2.425000e+001 5.400000e+001 1.500000e+000
      vertex   -2.425000e+001 2.900000e+001 1.000000e+000
    endloop
  endfacet
  facet normal -1.000000e+000 0.000000e+000 0.000000e+000
    outer loop
      vertex   -2.425000e+001 2.900000e+001 1.000000e+000
      vertex   -2.425000e+001 5.400000e+001 1.500000e+000
      vertex   -2.425000e+001 7.100000e+001 1.000000e+000
    endloop
  endfacet
  facet normal -1.000000e+000 0.000000e+000 0.000000e+000
    outer loop
      vertex   -2.425000e+001 7.100000e+001 1.000000e+000
      vertex   -2.425000e+001 5.400000e+001 1.500000e+000
      vertex   -2.425000e+001 7.100000e+001 1.500000e+000
    endloop
  endfacet
  facet normal 1.000000e+000 2.537653e-016 0.000000e+000
    outer loop
      vertex   -2.050000e+001 2.900000e+001 4.000000e+000
      vertex   -2.050000e+001 2.900000e+001 8.881784e-015
      vertex   -2.050000e+001 7.100000e+001 4.000000e+000
    endloop
  endfacet
  facet normal 1.000000e+000 2.537653e-016 0.000000e+000
    outer loop
      vertex   -2.050000e+001 7.100000e+001 4.000000e+000
      vertex   -2.050000e+001 2.900000e+001 8.881784e-015
      vertex   -2.050000e+001 7.100000e+001 8.881784e-015
    endloop
  endfacet
  facet normal -0.000000e+000 0.000000e+000 1.000000e+000
    outer loop
      vertex   -2.425000e+001 5.400000e+001 4.000000e+000
      vertex   -2.425000e+001 2.900000e+001 4.000000e+000
      vertex   -2.225000e+001 5.600000e+001 4.000000e+000
    endloop
  endfacet
  facet normal -0.000000e+000 0.000000e+000 1.000000e+000
    outer loop
      vertex   -2.225000e+001 5.600000e+001 4.000000e+000
      vertex   -2.425000e+001 2.900000e+001 4.000000e+000
      vertex   -2.050000e+001 2.900000e+001 4.000000e+000
    endloop
  endfacet
  facet normal -0.000000e+000 -0.000000e+000 1.000000e+000
    outer loop
      vertex   -2.150000e+001 5.600000e+001 4.000000e+000
      vertex   -2.050000e+001 2.900000e+001 4.000000e+000
      vertex   -2.050000e+001 7.100000e+001 4.000000e+000
    endloop
  endfacet
  facet normal -0.000000e+000 0.000000e+000 1.000000e+000
    outer loop
      vertex   -2.150000e+001 7.100000e+001 4.000000e+000
      vertex   -2.150000e+001 5.600000e+001 4.000000e+000
      vertex   -2.050000e+001 7.100000e+001 4.000000e+000
    endloop
  endfacet
  facet normal -0.000000e+000 -0.000000e+000 1.000000e+000
    outer loop
      vertex   -2.225000e+001 5.600000e+001 4.000000e+000
      vertex   -2.050000e+001 2.900000e+001 4.000000e+000
      vertex   -2.150000e+001 5.600000e+001 4.000000e+000
    endloop
  endfacet
  facet normal 0.000000e+000 0.000000e+000 1.000000e+000
    outer loop
      vertex   -3.450000e+001 7.100000e+001 4.000000e+000
      vertex   -3.550000e+001 7.100000e+001 4.000000e+000
      vertex   -3.450000e+001 5.600000e+001 4.000000e+000
    endloop
  endfacet
  facet normal 0.000000e+000 0.000000e+000 1.000000e+000
    outer loop
      vertex   -3.450000e+001 5.600000e+001 4.000000e+000
      vertex   -3.550000e+001 7.100000e+001 4.000000e+000
      vertex   -3.550000e+001 2.900000e+001 4.000000e+000
    endloop
  endfacet
  facet normal -0.000000e+000 0.000000e+000 1.000000e+000
    outer loop
      vertex   -3.375000e+001 5.600000e+001 4.000000e+000
      vertex   -3.550000e+001 2.900000e+001 4.000000e+000
      vertex   -3.175000e+001 2.900000e+001 4.000000e+000
    endloop
  endfacet
  facet normal 0.000000e+000 0.000000e+000 1.000000e+000
    outer loop
      vertex   -3.175000e+001 5.400000e+001 4.000000e+000
      vertex   -3.375000e+001 5.600000e+001 4.000000e+000
      vertex   -3.175000e+001 2.900000e+001 4.000000e+000
    endloop
  endfacet
  facet normal -0.000000e+000 0.000000e+000 1.000000e+000
    outer loop
      vertex   -3.450000e+001 5.600000e+001 4.000000e+000
      vertex   -3.550000e+001 2.900000e+001 4.000000e+000
      vertex   -3.375000e+001 5.600000e+001 4.000000e+000
    endloop
  endfacet
  facet normal 0.000000e+000 0.000000e+000 1.000000e+000
    outer loop
      vertex   -4.875000e+001 5.400000e+001 4.000000e+000
      vertex   -5.075000e+001 5.600000e+001 4.000000e+000
      vertex   -4.875000e+001 2.900000e+001 4.000000e+000
    endloop
  endfacet
  facet normal 0.000000e+000 0.000000e+000 1.000000e+000
    outer loop
      vertex   -4.875000e+001 2.900000e+001 4.000000e+000
      vertex   -5.075000e+001 5.600000e+001 4.000000e+000
      vertex   -5.250000e+001 2.900000e+001 4.000000e+000
    endloop
  endfacet
  facet normal 0.000000e+000 -0.000000e+000 1.000000e+000
    outer loop
      vertex   -5.250000e+001 2.900000e+001 4.000000e+000
      vertex   -5.075000e+001 5.600000e+001 4.000000e+000
      vertex   -5.150000e+001 5.600000e+001 4.000000e+000
    endloop
  endfacet
  facet normal -0.000000e+000 0.000000e+000 1.000000e+000
    outer loop
      vertex   -5.250000e+001 7.100000e+001 4.000000e+000
      vertex   -5.150000e+001 5.600000e+001 4.000000e+000
      vertex   -5.150000e+001 7.100000e+001 4.000000e+000
    endloop
  endfacet
  facet normal -0.000000e+000 0.000000e+000 1.000000e+000
    outer loop
      vertex   -5.250000e+001 7.100000e+001 4.000000e+000
      vertex   -5.250000e+001 2.900000e+001 4.000000e+000
      vertex   -5.150000e+001 5.600000e+001 4.000000e+000
    endloop
  endfacet
  facet normal 0.000000e+000 0.000000e+000 1.000000e+000
    outer loop
      vertex   -3.750000e+001 7.100000e+001 4.000000e+000
      vertex   -3.850000e+001 5.600000e+001 4.000000e+000
      vertex   -3.750000e+001 2.900000e+001 4.000000e+000
    endloop
  endfacet
  facet normal 0.000000e+000 0.000000e+000 1.000000e+000
    outer loop
      vertex   -3.750000e+001 7.100000e+001 4.000000e+000
      vertex   -3.850000e+001 7.100000e+001 4.000000e+000
      vertex   -3.850000e+001 5.600000e+001 4.000000e+000
    endloop
  endfacet
  facet normal 0.000000e+000 0.000000e+000 1.000000e+000
    outer loop
      vertex   -3.850000e+001 5.600000e+001 4.000000e+000
      vertex   -3.925000e+001 5.600000e+001 4.000000e+000
      vertex   -3.750000e+001 2.900000e+001 4.000000e+000
    endloop
  endfacet
  facet normal 0.000000e+000 0.000000e+000 1.000000e+000
    outer loop
      vertex   -3.750000e+001 2.900000e+001 4.000000e+000
      vertex   -3.925000e+001 5.600000e+001 4.000000e+000
      vertex   -4.125000e+001 2.900000e+001 4.000000e+000
    endloop
  endfacet
  facet normal 0.000000e+000 -0.000000e+000 1.000000e+000
    outer loop
      vertex   -4.125000e+001 2.900000e+001 4.000000e+000
      vertex   -3.925000e+001 5.600000e+001 4.000000e+000
      vertex   -4.125000e+001 5.400000e+001 4.000000e+000
    endloop
  endfacet
  facet normal 1.000000e+000 -0.000000e+000 0.000000e+000
    outer loop
      vertex   -5.150000e+001 5.600000e+001 4.000000e+000
      vertex   -5.150000e+001 5.600000e+001 1.500000e+000
      vertex   -5.150000e+001 7.100000e+001 4.000000e+000
    endloop
  endfacet
  facet normal 1.000000e+000 -0.000000e+000 0.000000e+000
    outer loop
      vertex   -5.150000e+001 7.100000e+001 4.000000e+000
      vertex   -5.150000e+001 5.600000e+001 1.500000e+000
      vertex   -5.150000e+001 7.100000e+001 1.500000e+000
    endloop
  endfacet
  facet normal 0.000000e+000 1.000000e+000 0.000000e+000
    outer loop
      vertex   -5.075000e+001 5.600000e+001 4.000000e+000
      vertex   -5.075000e+001 5.600000e+001 1.500000e+000
      vertex   -5.150000e+001 5.600000e+001 4.000000e+000
    endloop
  endfacet
  facet normal 0.000000e+000 1.000000e+000 0.000000e+000
    outer loop
      vertex   -5.150000e+001 5.600000e+001 4.000000e+000
      vertex   -5.075000e+001 5.600000e+001 1.500000e+000
      vertex   -5.150000e+001 5.600000e+001 1.500000e+000
    endloop
  endfacet
  facet normal 9.473903e-015 1.000000e+000 0.000000e+000
    outer loop
      vertex   -3.850000e+001 5.600000e+001 4.000000e+000
      vertex   -3.850000e+001 5.600000e+001 1.500000e+000
      vertex   -3.925000e+001 5.600000e+001 4.000000e+000
    endloop
  endfacet
  facet normal 9.473903e-015 1.000000e+000 0.000000e+000
    outer loop
      vertex   -3.925000e+001 5.600000e+001 4.000000e+000
      vertex   -3.850000e+001 5.600000e+001 1.500000e+000
      vertex   -3.925000e+001 5.600000e+001 1.500000e+000
    endloop
  endfacet
  facet normal -1.000000e+000 -0.000000e+000 -0.000000e+000
    outer loop
      vertex   -3.850000e+001 7.100000e+001 4.000000e+000
      vertex   -3.850000e+001 7.100000e+001 1.500000e+000
      vertex   -3.850000e+001 5.600000e+001 4.000000e+000
    endloop
  endfacet
  facet normal -1.000000e+000 -0.000000e+000 -0.000000e+000
    outer loop
      vertex   -3.850000e+001 5.600000e+001 4.000000e+000
      vertex   -3.850000e+001 7.100000e+001 1.500000e+000
      vertex   -3.850000e+001 5.600000e+001 1.500000e+000
    endloop
  endfacet
  facet normal 0.000000e+000 1.000000e+000 0.000000e+000
    outer loop
      vertex   -5.150000e+001 7.100000e+001 4.000000e+000
      vertex   -5.150000e+001 7.100000e+001 1.500000e+000
      vertex   -5.250000e+001 7.100000e+001 4.000000e+000
    endloop
  endfacet
  facet normal 0.000000e+000 1.000000e+000 0.000000e+000
    outer loop
      vertex   -5.250000e+001 7.100000e+001 4.000000e+000
      vertex   -5.150000e+001 7.100000e+001 1.500000e+000
      vertex   -5.250000e+001 7.100000e+001 0.000000e+000
    endloop
  endfacet
  facet normal -0.000000e+000 1.000000e+000 0.000000e+000
    outer loop
      vertex   -5.250000e+001 7.100000e+001 0.000000e+000
      vertex   -5.150000e+001 7.100000e+001 1.500000e+000
      vertex   -4.875000e+001 7.100000e+001 1.000000e+000
    endloop
  endfacet
  facet normal 0.000000e+000 1.000000e+000 -0.000000e+000
    outer loop
      vertex   -3.750000e+001 7.100000e+001 0.000000e+000
      vertex   -4.875000e+001 7.100000e+001 1.000000e+000
      vertex   -4.125000e+001 7.100000e+001 1.000000e+000
    endloop
  endfacet
  facet normal 0.000000e+000 1.000000e+000 -0.000000e+000
    outer loop
      vertex   -3.850000e+001 7.100000e+001 1.500000e+000
      vertex   -4.125000e+001 7.100000e+001 1.000000e+000
      vertex   -4.125000e+001 7.100000e+001 1.500000e+000
    endloop
  endfacet
  facet normal 0.000000e+000 1.000000e+000 0.000000e+000
    outer loop
      vertex   -3.850000e+001 7.100000e+001 1.500000e+000
      vertex   -3.750000e+001 7.100000e+001 0.000000e+000
      vertex   -4.125000e+001 7.100000e+001 1.000000e+000
    endloop
  endfacet
  facet normal -0.000000e+000 1.000000e+000 0.000000e+000
    outer loop
      vertex   -3.850000e+001 7.100000e+001 1.500000e+000
      vertex   -3.750000e+001 7.100000e+001 4.000000e+000
      vertex   -3.750000e+001 7.100000e+001 0.000000e+000
    endloop
  endfacet
  facet normal 0.000000e+000 1.000000e+000 0.000000e+000
    outer loop
      vertex   -3.850000e+001 7.100000e+001 1.500000e+000
      vertex   -3.850000e+001 7.100000e+001 4.000000e+000
      vertex   -3.750000e+001 7.100000e+001 4.000000e+000
    endloop
  endfacet
  facet normal -0.000000e+000 1.000000e+000 0.000000e+000
    outer loop
      vertex   -5.150000e+001 7.100000e+001 1.500000e+000
      vertex   -4.875000e+001 7.100000e+001 1.500000e+000
      vertex   -4.875000e+001 7.100000e+001 1.000000e+000
    endloop
  endfacet
  facet normal -0.000000e+000 1.000000e+000 0.000000e+000
    outer loop
      vertex   -5.250000e+001 7.100000e+001 0.000000e+000
      vertex   -4.875000e+001 7.100000e+001 1.000000e+000
      vertex   -3.750000e+001 7.100000e+001 0.000000e+000
    endloop
  endfacet
  facet normal 7.071068e-001 7.071068e-001 0.000000e+000
    outer loop
      vertex   -4.875000e+001 5.400000e+001 4.000000e+000
      vertex   -4.875000e+001 5.400000e+001 1.500000e+000
      vertex   -5.075000e+001 5.600000e+001 4.000000e+000
    endloop
  endfacet
  facet normal 7.071068e-001 7.071068e-001 0.000000e+000
    outer loop
      vertex   -5.075000e+001 5.600000e+001 4.000000e+000
      vertex   -4.875000e+001 5.400000e+001 1.500000e+000
      vertex   -5.075000e+001 5.600000e+001 1.500000e+000
    endloop
  endfacet
  facet normal -7.071068e-001 7.071068e-001 0.000000e+000
    outer loop
      vertex   -3.925000e+001 5.600000e+001 4.000000e+000
      vertex   -3.925000e+001 5.600000e+001 1.500000e+000
      vertex   -4.125000e+001 5.400000e+001 4.000000e+000
    endloop
  endfacet
  facet normal -7.071068e-001 7.071068e-001 0.000000e+000
    outer loop
      vertex   -4.125000e+001 5.400000e+001 4.000000e+000
      vertex   -3.925000e+001 5.600000e+001 1.500000e+000
      vertex   -4.125000e+001 5.400000e+001 1.500000e+000
    endloop
  endfacet
  facet normal 0.000000e+000 -0.000000e+000 1.000000e+000
    outer loop
      vertex   -4.875000e+001 5.400000e+001 1.500000e+000
      vertex   -4.875000e+001 7.100000e+001 1.500000e+000
      vertex   -5.075000e+001 5.600000e+001 1.500000e+000
    endloop
  endfacet
  facet normal 0.000000e+000 -0.000000e+000 1.000000e+000
    outer loop
      vertex   -5.075000e+001 5.600000e+001 1.500000e+000
      vertex   -4.875000e+001 7.100000e+001 1.500000e+000
      vertex   -5.150000e+001 7.100000e+001 1.500000e+000
    endloop
  endfacet
  facet normal 0.000000e+000 -0.000000e+000 1.000000e+000
    outer loop
      vertex   -5.150000e+001 5.600000e+001 1.500000e+000
      vertex   -5.075000e+001 5.600000e+001 1.500000e+000
      vertex   -5.150000e+001 7.100000e+001 1.500000e+000
    endloop
  endfacet
  facet normal 0.000000e+000 -0.000000e+000 1.000000e+000
    outer loop
      vertex   -4.125000e+001 5.400000e+001 1.500000e+000
      vertex   -3.925000e+001 5.600000e+001 1.500000e+000
      vertex   -4.125000e+001 7.100000e+001 1.500000e+000
    endloop
  endfacet
  facet normal -0.000000e+000 0.000000e+000 1.000000e+000
    outer loop
      vertex   -4.125000e+001 7.100000e+001 1.500000e+000
      vertex   -3.925000e+001 5.600000e+001 1.500000e+000
      vertex   -3.850000e+001 7.100000e+001 1.500000e+000
    endloop
  endfacet
  facet normal 0.000000e+000 0.000000e+000 1.000000e+000
    outer loop
      vertex   -3.850000e+001 7.100000e+001 1.500000e+000
      vertex   -3.925000e+001 5.600000e+001 1.500000e+000
      vertex   -3.850000e+001 5.600000e+001 1.500000e+000
    endloop
  endfacet
  facet normal -1.000000e+000 -0.000000e+000 -0.000000e+000
    outer loop
      vertex   -4.125000e+001 5.400000e+001 4.000000e+000
      vertex   -4.125000e+001 5.400000e+001 1.500000e+000
      vertex   -4.125000e+001 2.900000e+001 4.000000e+000
    endloop
  endfacet
  facet normal -1.000000e+000 0.000000e+000 -0.000000e+000
    outer loop
      vertex   -4.125000e+001 2.900000e+001 4.000000e+000
      vertex   -4.125000e+001 5.400000e+001 1.500000e+000
      vertex   -4.125000e+001 2.900000e+001 1.000000e+000
    endloop
  endfacet
  facet normal -1.000000e+000 0.000000e+000 0.000000e+000
    outer loop
      vertex   -4.125000e+001 2.900000e+001 1.000000e+000
      vertex   -4.125000e+001 5.400000e+001 1.500000e+000
      vertex   -4.125000e+001 7.100000e+001 1.000000e+000
    endloop
  endfacet
  facet normal -1.000000e+000 0.000000e+000 0.000000e+000
    outer loop
      vertex   -4.125000e+001 7.100000e+001 1.000000e+000
      vertex   -4.125000e+001 5.400000e+001 1.500000e+000
      vertex   -4.125000e+001 7.100000e+001 1.500000e+000
    endloop
  endfacet
  facet normal 0.000000e+000 -0.000000e+000 1.000000e+000
    outer loop
      vertex   -4.875000e+001 2.900000e+001 1.000000e+000
      vertex   -4.125000e+001 2.900000e+001 1.000000e+000
      vertex   -4.875000e+001 7.100000e+001 1.000000e+000
    endloop
  endfacet
  facet normal -0.000000e+000 0.000000e+000 1.000000e+000
    outer loop
      vertex   -4.875000e+001 7.100000e+001 1.000000e+000
      vertex   -4.125000e+001 2.900000e+001 1.000000e+000
      vertex   -4.125000e+001 7.100000e+001 1.000000e+000
    endloop
  endfacet
  facet normal 1.000000e+000 0.000000e+000 0.000000e+000
    outer loop
      vertex   -4.875000e+001 5.400000e+001 4.000000e+000
      vertex   -4.875000e+001 2.900000e+001 4.000000e+000
      vertex   -4.875000e+001 5.400000e+001 1.500000e+000
    endloop
  endfacet
  facet normal 1.000000e+000 0.000000e+000 0.000000e+000
    outer loop
      vertex   -4.875000e+001 5.400000e+001 1.500000e+000
      vertex   -4.875000e+001 2.900000e+001 4.000000e+000
      vertex   -4.875000e+001 2.900000e+001 1.000000e+000
    endloop
  endfacet
  facet normal 1.000000e+000 0.000000e+000 0.000000e+000
    outer loop
      vertex   -4.875000e+001 7.100000e+001 1.000000e+000
      vertex   -4.875000e+001 5.400000e+001 1.500000e+000
      vertex   -4.875000e+001 2.900000e+001 1.000000e+000
    endloop
  endfacet
  facet normal 1.000000e+000 0.000000e+000 -0.000000e+000
    outer loop
      vertex   -4.875000e+001 7.100000e+001 1.000000e+000
      vertex   -4.875000e+001 7.100000e+001 1.500000e+000
      vertex   -4.875000e+001 5.400000e+001 1.500000e+000
    endloop
  endfacet
  facet normal -0.000000e+000 0.000000e+000 -1.000000e+000
    outer loop
      vertex   -3.750000e+001 7.100000e+001 0.000000e+000
      vertex   -3.750000e+001 2.900000e+001 0.000000e+000
      vertex   -5.250000e+001 7.100000e+001 0.000000e+000
    endloop
  endfacet
  facet normal -0.000000e+000 -0.000000e+000 -1.000000e+000
    outer loop
      vertex   -5.250000e+001 7.100000e+001 0.000000e+000
      vertex   -3.750000e+001 2.900000e+001 0.000000e+000
      vertex   -5.250000e+001 2.900000e+001 0.000000e+000
    endloop
  endfacet
  facet normal 1.000000e+000 -1.691768e-016 0.000000e+000
    outer loop
      vertex   -3.750000e+001 2.900000e+001 4.000000e+000
      vertex   -3.750000e+001 2.900000e+001 0.000000e+000
      vertex   -3.750000e+001 7.100000e+001 4.000000e+000
    endloop
  endfacet
  facet normal 1.000000e+000 -1.691768e-016 0.000000e+000
    outer loop
      vertex   -3.750000e+001 7.100000e+001 4.000000e+000
      vertex   -3.750000e+001 2.900000e+001 0.000000e+000
      vertex   -3.750000e+001 7.100000e+001 0.000000e+000
    endloop
  endfacet
  facet normal -0.000000e+000 -1.000000e+000 -0.000000e+000
    outer loop
      vertex   -4.875000e+001 2.900000e+001 4.000000e+000
      vertex   -5.250000e+001 2.900000e+001 4.000000e+000
      vertex   -4.875000e+001 2.900000e+001 1.000000e+000
    endloop
  endfacet
  facet normal -0.000000e+000 -1.000000e+000 -0.000000e+000
    outer loop
      vertex   -4.875000e+001 2.900000e+001 1.000000e+000
      vertex   -5.250000e+001 2.900000e+001 4.000000e+000
      vertex   -5.250000e+001 2.900000e+001 0.000000e+000
    endloop
  endfacet
  facet normal -0.000000e+000 -1.000000e+000 0.000000e+000
    outer loop
      vertex   -3.750000e+001 2.900000e+001 0.000000e+000
      vertex   -4.875000e+001 2.900000e+001 1.000000e+000
      vertex   -5.250000e+001 2.900000e+001 0.000000e+000
    endloop
  endfacet
  facet normal 0.000000e+000 -1.000000e+000 0.000000e+000
    outer loop
      vertex   -3.750000e+001 2.900000e+001 0.000000e+000
      vertex   -4.125000e+001 2.900000e+001 1.000000e+000
      vertex   -4.875000e+001 2.900000e+001 1.000000e+000
    endloop
  endfacet
  facet normal -0.000000e+000 -1.000000e+000 0.000000e+000
    outer loop
      vertex   -3.750000e+001 2.900000e+001 0.000000e+000
      vertex   -3.750000e+001 2.900000e+001 4.000000e+000
      vertex   -4.125000e+001 2.900000e+001 1.000000e+000
    endloop
  endfacet
  facet normal 0.000000e+000 -1.000000e+000 0.000000e+000
    outer loop
      vertex   -4.125000e+001 2.900000e+001 1.000000e+000
      vertex   -3.750000e+001 2.900000e+001 4.000000e+000
      vertex   -4.125000e+001 2.900000e+001 4.000000e+000
    endloop
  endfacet
  facet normal -1.000000e+000 1.691768e-016 0.000000e+000
    outer loop
      vertex   -5.250000e+001 7.100000e+001 4.000000e+000
      vertex   -5.250000e+001 7.100000e+001 0.000000e+000
      vertex   -5.250000e+001 2.900000e+001 4.000000e+000
    endloop
  endfacet
  facet normal -1.000000e+000 1.691768e-016 0.000000e+000
    outer loop
      vertex   -5.250000e+001 2.900000e+001 4.000000e+000
      vertex   -5.250000e+001 7.100000e+001 0.000000e+000
      vertex   -5.250000e+001 2.900000e+001 0.000000e+000
    endloop
  endfacet
endsolid
