solid ascii
  facet normal 0.000000e+000 -1.000000e+000 0.000000e+000
    outer loop
      vertex   -2.425000e+001 4.600000e+001 4.000000e+000
      vertex   -2.425000e+001 4.600000e+001 1.500000e+000
      vertex   -2.050000e+001 4.600000e+001 4.000000e+000
    endloop
  endfacet
  facet normal 0.000000e+000 -1.000000e+000 -0.000000e+000
    outer loop
      vertex   -2.050000e+001 4.600000e+001 4.000000e+000
      vertex   -2.425000e+001 4.600000e+001 1.500000e+000
      vertex   -2.050000e+001 4.600000e+001 8.881784e-015
    endloop
  endfacet
  facet normal -0.000000e+000 -1.000000e+000 0.000000e+000
    outer loop
      vertex   -2.050000e+001 4.600000e+001 8.881784e-015
      vertex   -2.425000e+001 4.600000e+001 1.500000e+000
      vertex   -3.550000e+001 4.600000e+001 0.000000e+000
    endloop
  endfacet
  facet normal 0.000000e+000 -1.000000e+000 0.000000e+000
    outer loop
      vertex   -3.550000e+001 4.600000e+001 0.000000e+000
      vertex   -2.425000e+001 4.600000e+001 1.500000e+000
      vertex   -3.175000e+001 4.600000e+001 1.500000e+000
    endloop
  endfacet
  facet normal 0.000000e+000 -1.000000e+000 0.000000e+000
    outer loop
      vertex   -3.550000e+001 4.600000e+001 4.000000e+000
      vertex   -3.175000e+001 4.600000e+001 1.500000e+000
      vertex   -3.175000e+001 4.600000e+001 4.000000e+000
    endloop
  endfacet
  facet normal 0.000000e+000 -1.000000e+000 -0.000000e+000
    outer loop
      vertex   -3.550000e+001 4.600000e+001 4.000000e+000
      vertex   -3.550000e+001 4.600000e+001 0.000000e+000
      vertex   -3.175000e+001 4.600000e+001 1.500000e+000
    endloop
  endfacet
  facet normal 0.000000e+000 -1.117587e-008 1.000000e+000
    outer loop
      vertex   -2.425000e+001 4.600000e+001 1.500000e+000
      vertex   -2.425000e+001 5.400000e+001 1.500000e+000
      vertex   -3.175000e+001 4.600000e+001 1.500000e+000
    endloop
  endfacet
  facet normal 0.000000e+000 -1.117587e-008 1.000000e+000
    outer loop
      vertex   -3.175000e+001 4.600000e+001 1.500000e+000
      vertex   -2.425000e+001 5.400000e+001 1.500000e+000
      vertex   -3.175000e+001 5.400000e+001 1.500000e+000
    endloop
  endfacet
  facet normal 0.000000e+000 0.000000e+000 1.000000e+000
    outer loop
      vertex   -3.175000e+001 5.400000e+001 1.500000e+000
      vertex   -2.425000e+001 5.400000e+001 1.500000e+000
      vertex   -2.150000e+001 6.600000e+001 1.500000e+000
    endloop
  endfacet
  facet normal -0.000000e+000 0.000000e+000 1.000000e+000
    outer loop
      vertex   -3.450000e+001 6.600000e+001 1.500000e+000
      vertex   -3.175000e+001 5.400000e+001 1.500000e+000
      vertex   -2.150000e+001 6.600000e+001 1.500000e+000
    endloop
  endfacet
  facet normal 0.000000e+000 0.000000e+000 1.000000e+000
    outer loop
      vertex   -3.450000e+001 6.600000e+001 1.500000e+000
      vertex   -3.375000e+001 5.600000e+001 1.500000e+000
      vertex   -3.175000e+001 5.400000e+001 1.500000e+000
    endloop
  endfacet
  facet normal -0.000000e+000 0.000000e+000 1.000000e+000
    outer loop
      vertex   -3.450000e+001 6.600000e+001 1.500000e+000
      vertex   -3.450000e+001 5.600000e+001 1.500000e+000
      vertex   -3.375000e+001 5.600000e+001 1.500000e+000
    endloop
  endfacet
  facet normal 0.000000e+000 0.000000e+000 1.000000e+000
    outer loop
      vertex   -2.425000e+001 5.400000e+001 1.500000e+000
      vertex   -2.225000e+001 5.600000e+001 1.500000e+000
      vertex   -2.150000e+001 6.600000e+001 1.500000e+000
    endloop
  endfacet
  facet normal -0.000000e+000 0.000000e+000 1.000000e+000
    outer loop
      vertex   -2.150000e+001 6.600000e+001 1.500000e+000
      vertex   -2.225000e+001 5.600000e+001 1.500000e+000
      vertex   -2.150000e+001 5.600000e+001 1.500000e+000
    endloop
  endfacet
  facet normal -1.000000e+000 4.440892e-016 0.000000e+000
    outer loop
      vertex   -2.425000e+001 4.600000e+001 1.500000e+000
      vertex   -2.425000e+001 4.600000e+001 4.000000e+000
      vertex   -2.425000e+001 5.400000e+001 1.500000e+000
    endloop
  endfacet
  facet normal -1.000000e+000 4.440892e-016 0.000000e+000
    outer loop
      vertex   -2.425000e+001 5.400000e+001 1.500000e+000
      vertex   -2.425000e+001 4.600000e+001 4.000000e+000
      vertex   -2.425000e+001 5.400000e+001 4.000000e+000
    endloop
  endfacet
  facet normal -0.000000e+000 0.000000e+000 1.000000e+000
    outer loop
      vertex   -2.425000e+001 5.400000e+001 4.000000e+000
      vertex   -2.425000e+001 4.600000e+001 4.000000e+000
      vertex   -2.225000e+001 5.600000e+001 4.000000e+000
    endloop
  endfacet
  facet normal -0.000000e+000 0.000000e+000 1.000000e+000
    outer loop
      vertex   -2.225000e+001 5.600000e+001 4.000000e+000
      vertex   -2.425000e+001 4.600000e+001 4.000000e+000
      vertex   -2.050000e+001 4.600000e+001 4.000000e+000
    endloop
  endfacet
  facet normal -0.000000e+000 -0.000000e+000 1.000000e+000
    outer loop
      vertex   -2.150000e+001 5.600000e+001 4.000000e+000
      vertex   -2.050000e+001 4.600000e+001 4.000000e+000
      vertex   -2.050000e+001 6.600000e+001 4.000000e+000
    endloop
  endfacet
  facet normal -0.000000e+000 0.000000e+000 1.000000e+000
    outer loop
      vertex   -2.150000e+001 6.600000e+001 4.000000e+000
      vertex   -2.150000e+001 5.600000e+001 4.000000e+000
      vertex   -2.050000e+001 6.600000e+001 4.000000e+000
    endloop
  endfacet
  facet normal -0.000000e+000 -0.000000e+000 1.000000e+000
    outer loop
      vertex   -2.225000e+001 5.600000e+001 4.000000e+000
      vertex   -2.050000e+001 4.600000e+001 4.000000e+000
      vertex   -2.150000e+001 5.600000e+001 4.000000e+000
    endloop
  endfacet
  facet normal 1.000000e+000 3.552713e-016 0.000000e+000
    outer loop
      vertex   -2.050000e+001 4.600000e+001 4.000000e+000
      vertex   -2.050000e+001 4.600000e+001 8.881784e-015
      vertex   -2.050000e+001 6.600000e+001 4.000000e+000
    endloop
  endfacet
  facet normal 1.000000e+000 3.552713e-016 0.000000e+000
    outer loop
      vertex   -2.050000e+001 6.600000e+001 4.000000e+000
      vertex   -2.050000e+001 4.600000e+001 8.881784e-015
      vertex   -2.050000e+001 6.600000e+001 8.881784e-015
    endloop
  endfacet
  facet normal 1.000000e+000 -4.440892e-016 0.000000e+000
    outer loop
      vertex   -3.175000e+001 4.600000e+001 1.500000e+000
      vertex   -3.175000e+001 5.400000e+001 1.500000e+000
      vertex   -3.175000e+001 4.600000e+001 4.000000e+000
    endloop
  endfacet
  facet normal 1.000000e+000 -4.440892e-016 0.000000e+000
    outer loop
      vertex   -3.175000e+001 4.600000e+001 4.000000e+000
      vertex   -3.175000e+001 5.400000e+001 1.500000e+000
      vertex   -3.175000e+001 5.400000e+001 4.000000e+000
    endloop
  endfacet
  facet normal -0.000000e+000 1.000000e+000 0.000000e+000
    outer loop
      vertex   -2.150000e+001 6.600000e+001 4.000000e+000
      vertex   -2.050000e+001 6.600000e+001 4.000000e+000
      vertex   -2.150000e+001 6.600000e+001 1.500000e+000
    endloop
  endfacet
  facet normal -0.000000e+000 1.000000e+000 0.000000e+000
    outer loop
      vertex   -2.150000e+001 6.600000e+001 1.500000e+000
      vertex   -2.050000e+001 6.600000e+001 4.000000e+000
      vertex   -2.050000e+001 6.600000e+001 8.881784e-015
    endloop
  endfacet
  facet normal -0.000000e+000 1.000000e+000 0.000000e+000
    outer loop
      vertex   -3.550000e+001 6.600000e+001 0.000000e+000
      vertex   -2.150000e+001 6.600000e+001 1.500000e+000
      vertex   -2.050000e+001 6.600000e+001 8.881784e-015
    endloop
  endfacet
  facet normal 0.000000e+000 1.000000e+000 0.000000e+000
    outer loop
      vertex   -3.550000e+001 6.600000e+001 0.000000e+000
      vertex   -3.450000e+001 6.600000e+001 1.500000e+000
      vertex   -2.150000e+001 6.600000e+001 1.500000e+000
    endloop
  endfacet
  facet normal -0.000000e+000 1.000000e+000 0.000000e+000
    outer loop
      vertex   -3.550000e+001 6.600000e+001 0.000000e+000
      vertex   -3.550000e+001 6.600000e+001 4.000000e+000
      vertex   -3.450000e+001 6.600000e+001 1.500000e+000
    endloop
  endfacet
  facet normal 0.000000e+000 1.000000e+000 -0.000000e+000
    outer loop
      vertex   -3.450000e+001 6.600000e+001 1.500000e+000
      vertex   -3.550000e+001 6.600000e+001 4.000000e+000
      vertex   -3.450000e+001 6.600000e+001 4.000000e+000
    endloop
  endfacet
  facet normal 1.000000e+000 0.000000e+000 -2.842171e-015
    outer loop
      vertex   -3.450000e+001 6.600000e+001 1.500000e+000
      vertex   -3.450000e+001 6.600000e+001 4.000000e+000
      vertex   -3.450000e+001 5.600000e+001 1.500000e+000
    endloop
  endfacet
  facet normal 1.000000e+000 0.000000e+000 -2.842171e-015
    outer loop
      vertex   -3.450000e+001 5.600000e+001 1.500000e+000
      vertex   -3.450000e+001 6.600000e+001 4.000000e+000
      vertex   -3.450000e+001 5.600000e+001 4.000000e+000
    endloop
  endfacet
  facet normal 0.000000e+000 0.000000e+000 1.000000e+000
    outer loop
      vertex   -3.175000e+001 4.600000e+001 4.000000e+000
      vertex   -3.375000e+001 5.600000e+001 4.000000e+000
      vertex   -3.550000e+001 4.600000e+001 4.000000e+000
    endloop
  endfacet
  facet normal 0.000000e+000 -0.000000e+000 1.000000e+000
    outer loop
      vertex   -3.175000e+001 4.600000e+001 4.000000e+000
      vertex   -3.175000e+001 5.400000e+001 4.000000e+000
      vertex   -3.375000e+001 5.600000e+001 4.000000e+000
    endloop
  endfacet
  facet normal 0.000000e+000 0.000000e+000 1.000000e+000
    outer loop
      vertex   -3.375000e+001 5.600000e+001 4.000000e+000
      vertex   -3.450000e+001 5.600000e+001 4.000000e+000
      vertex   -3.550000e+001 4.600000e+001 4.000000e+000
    endloop
  endfacet
  facet normal 0.000000e+000 -0.000000e+000 1.000000e+000
    outer loop
      vertex   -3.550000e+001 4.600000e+001 4.000000e+000
      vertex   -3.450000e+001 5.600000e+001 4.000000e+000
      vertex   -3.550000e+001 6.600000e+001 4.000000e+000
    endloop
  endfacet
  facet normal -0.000000e+000 0.000000e+000 1.000000e+000
    outer loop
      vertex   -3.550000e+001 6.600000e+001 4.000000e+000
      vertex   -3.450000e+001 5.600000e+001 4.000000e+000
      vertex   -3.450000e+001 6.600000e+001 4.000000e+000
    endloop
  endfacet
  facet normal -1.000000e+000 0.000000e+000 1.776357e-015
    outer loop
      vertex   -3.550000e+001 4.600000e+001 0.000000e+000
      vertex   -3.550000e+001 4.600000e+001 4.000000e+000
      vertex   -3.550000e+001 6.600000e+001 0.000000e+000
    endloop
  endfacet
  facet normal -1.000000e+000 -3.552713e-016 0.000000e+000
    outer loop
      vertex   -3.550000e+001 6.600000e+001 0.000000e+000
      vertex   -3.550000e+001 4.600000e+001 4.000000e+000
      vertex   -3.550000e+001 6.600000e+001 4.000000e+000
    endloop
  endfacet
  facet normal 5.921189e-016 0.000000e+000 -1.000000e+000
    outer loop
      vertex   -3.550000e+001 4.600000e+001 0.000000e+000
      vertex   -3.550000e+001 6.600000e+001 0.000000e+000
      vertex   -2.050000e+001 4.600000e+001 8.881784e-015
    endloop
  endfacet
  facet normal 5.921189e-016 1.682903e-031 -1.000000e+000
    outer loop
      vertex   -2.050000e+001 4.600000e+001 8.881784e-015
      vertex   -3.550000e+001 6.600000e+001 0.000000e+000
      vertex   -2.050000e+001 6.600000e+001 8.881784e-015
    endloop
  endfacet
  facet normal -1.000000e+000 -0.000000e+000 -0.000000e+000
    outer loop
      vertex   -2.150000e+001 6.600000e+001 4.000000e+000
      vertex   -2.150000e+001 6.600000e+001 1.500000e+000
      vertex   -2.150000e+001 5.600000e+001 4.000000e+000
    endloop
  endfacet
  facet normal -1.000000e+000 -0.000000e+000 -0.000000e+000
    outer loop
      vertex   -2.150000e+001 5.600000e+001 4.000000e+000
      vertex   -2.150000e+001 6.600000e+001 1.500000e+000
      vertex   -2.150000e+001 5.600000e+001 1.500000e+000
    endloop
  endfacet
  facet normal -9.473903e-015 1.000000e+000 0.000000e+000
    outer loop
      vertex   -3.375000e+001 5.600000e+001 4.000000e+000
      vertex   -3.375000e+001 5.600000e+001 1.500000e+000
      vertex   -3.450000e+001 5.600000e+001 4.000000e+000
    endloop
  endfacet
  facet normal -9.473903e-015 1.000000e+000 2.692645e-029
    outer loop
      vertex   -3.450000e+001 5.600000e+001 4.000000e+000
      vertex   -3.375000e+001 5.600000e+001 1.500000e+000
      vertex   -3.450000e+001 5.600000e+001 1.500000e+000
    endloop
  endfacet
  facet normal 0.000000e+000 1.000000e+000 0.000000e+000
    outer loop
      vertex   -2.150000e+001 5.600000e+001 4.000000e+000
      vertex   -2.150000e+001 5.600000e+001 1.500000e+000
      vertex   -2.225000e+001 5.600000e+001 4.000000e+000
    endloop
  endfacet
  facet normal 0.000000e+000 1.000000e+000 0.000000e+000
    outer loop
      vertex   -2.225000e+001 5.600000e+001 4.000000e+000
      vertex   -2.150000e+001 5.600000e+001 1.500000e+000
      vertex   -2.225000e+001 5.600000e+001 1.500000e+000
    endloop
  endfacet
  facet normal 7.071068e-001 7.071068e-001 0.000000e+000
    outer loop
      vertex   -3.175000e+001 5.400000e+001 4.000000e+000
      vertex   -3.175000e+001 5.400000e+001 1.500000e+000
      vertex   -3.375000e+001 5.600000e+001 4.000000e+000
    endloop
  endfacet
  facet normal 7.071068e-001 7.071068e-001 0.000000e+000
    outer loop
      vertex   -3.375000e+001 5.600000e+001 4.000000e+000
      vertex   -3.175000e+001 5.400000e+001 1.500000e+000
      vertex   -3.375000e+001 5.600000e+001 1.500000e+000
    endloop
  endfacet
  facet normal -7.071068e-001 7.071068e-001 0.000000e+000
    outer loop
      vertex   -2.225000e+001 5.600000e+001 4.000000e+000
      vertex   -2.225000e+001 5.600000e+001 1.500000e+000
      vertex   -2.425000e+001 5.400000e+001 4.000000e+000
    endloop
  endfacet
  facet normal -7.071068e-001 7.071068e-001 0.000000e+000
    outer loop
      vertex   -2.425000e+001 5.400000e+001 4.000000e+000
      vertex   -2.225000e+001 5.600000e+001 1.500000e+000
      vertex   -2.425000e+001 5.400000e+001 1.500000e+000
    endloop
  endfacet
  facet normal -7.071068e-001 7.071068e-001 0.000000e+000
    outer loop
      vertex   -3.950000e+001 5.600000e+001 4.000000e+000
      vertex   -3.950000e+001 5.600000e+001 1.500000e+000
      vertex   -4.150000e+001 5.400000e+001 4.000000e+000
    endloop
  endfacet
  facet normal -7.071068e-001 7.071068e-001 0.000000e+000
    outer loop
      vertex   -4.150000e+001 5.400000e+001 4.000000e+000
      vertex   -3.950000e+001 5.600000e+001 1.500000e+000
      vertex   -4.150000e+001 5.400000e+001 1.500000e+000
    endloop
  endfacet
  facet normal -0.000000e+000 0.000000e+000 1.000000e+000
    outer loop
      vertex   -4.150000e+001 5.400000e+001 4.000000e+000
      vertex   -4.150000e+001 4.600000e+001 4.000000e+000
      vertex   -3.950000e+001 5.600000e+001 4.000000e+000
    endloop
  endfacet
  facet normal -0.000000e+000 0.000000e+000 1.000000e+000
    outer loop
      vertex   -3.950000e+001 5.600000e+001 4.000000e+000
      vertex   -4.150000e+001 4.600000e+001 4.000000e+000
      vertex   -3.750000e+001 4.600000e+001 4.000000e+000
    endloop
  endfacet
  facet normal -0.000000e+000 0.000000e+000 1.000000e+000
    outer loop
      vertex   -3.850000e+001 5.600000e+001 4.000000e+000
      vertex   -3.750000e+001 4.600000e+001 4.000000e+000
      vertex   -3.750000e+001 6.600000e+001 4.000000e+000
    endloop
  endfacet
  facet normal -0.000000e+000 0.000000e+000 1.000000e+000
    outer loop
      vertex   -3.850000e+001 6.600000e+001 4.000000e+000
      vertex   -3.850000e+001 5.600000e+001 4.000000e+000
      vertex   -3.750000e+001 6.600000e+001 4.000000e+000
    endloop
  endfacet
  facet normal -0.000000e+000 -0.000000e+000 1.000000e+000
    outer loop
      vertex   -3.950000e+001 5.600000e+001 4.000000e+000
      vertex   -3.750000e+001 4.600000e+001 4.000000e+000
      vertex   -3.850000e+001 5.600000e+001 4.000000e+000
    endloop
  endfacet
  facet normal -1.000000e+000 -8.881784e-016 -0.000000e+000
    outer loop
      vertex   -4.150000e+001 5.400000e+001 4.000000e+000
      vertex   -4.150000e+001 5.400000e+001 1.500000e+000
      vertex   -4.150000e+001 4.600000e+001 4.000000e+000
    endloop
  endfacet
  facet normal -1.000000e+000 -8.881784e-016 0.000000e+000
    outer loop
      vertex   -4.150000e+001 4.600000e+001 4.000000e+000
      vertex   -4.150000e+001 5.400000e+001 1.500000e+000
      vertex   -4.150000e+001 4.600000e+001 1.500000e+000
    endloop
  endfacet
  facet normal 7.071068e-001 7.071068e-001 0.000000e+000
    outer loop
      vertex   -4.850000e+001 5.400000e+001 4.000000e+000
      vertex   -4.850000e+001 5.400000e+001 1.500000e+000
      vertex   -5.050000e+001 5.600000e+001 4.000000e+000
    endloop
  endfacet
  facet normal 7.071068e-001 7.071068e-001 0.000000e+000
    outer loop
      vertex   -5.050000e+001 5.600000e+001 4.000000e+000
      vertex   -4.850000e+001 5.400000e+001 1.500000e+000
      vertex   -5.050000e+001 5.600000e+001 1.500000e+000
    endloop
  endfacet
  facet normal 0.000000e+000 1.000000e+000 0.000000e+000
    outer loop
      vertex   -5.050000e+001 5.600000e+001 4.000000e+000
      vertex   -5.050000e+001 5.600000e+001 1.500000e+000
      vertex   -5.150000e+001 5.600000e+001 4.000000e+000
    endloop
  endfacet
  facet normal 0.000000e+000 1.000000e+000 0.000000e+000
    outer loop
      vertex   -5.150000e+001 5.600000e+001 4.000000e+000
      vertex   -5.050000e+001 5.600000e+001 1.500000e+000
      vertex   -5.150000e+001 5.600000e+001 1.500000e+000
    endloop
  endfacet
  facet normal 0.000000e+000 -0.000000e+000 1.000000e+000
    outer loop
      vertex   -5.150000e+001 5.600000e+001 1.500000e+000
      vertex   -5.050000e+001 5.600000e+001 1.500000e+000
      vertex   -5.150000e+001 6.600000e+001 1.500000e+000
    endloop
  endfacet
  facet normal 0.000000e+000 0.000000e+000 1.000000e+000
    outer loop
      vertex   -5.150000e+001 6.600000e+001 1.500000e+000
      vertex   -5.050000e+001 5.600000e+001 1.500000e+000
      vertex   -4.850000e+001 5.400000e+001 1.500000e+000
    endloop
  endfacet
  facet normal 0.000000e+000 0.000000e+000 1.000000e+000
    outer loop
      vertex   -4.150000e+001 5.400000e+001 1.500000e+000
      vertex   -4.850000e+001 5.400000e+001 1.500000e+000
      vertex   -4.850000e+001 4.600000e+001 1.500000e+000
    endloop
  endfacet
  facet normal 0.000000e+000 0.000000e+000 1.000000e+000
    outer loop
      vertex   -4.150000e+001 4.600000e+001 1.500000e+000
      vertex   -4.150000e+001 5.400000e+001 1.500000e+000
      vertex   -4.850000e+001 4.600000e+001 1.500000e+000
    endloop
  endfacet
  facet normal -0.000000e+000 0.000000e+000 1.000000e+000
    outer loop
      vertex   -5.150000e+001 6.600000e+001 1.500000e+000
      vertex   -4.850000e+001 5.400000e+001 1.500000e+000
      vertex   -4.150000e+001 5.400000e+001 1.500000e+000
    endloop
  endfacet
  facet normal -0.000000e+000 0.000000e+000 1.000000e+000
    outer loop
      vertex   -3.850000e+001 6.600000e+001 1.500000e+000
      vertex   -4.150000e+001 5.400000e+001 1.500000e+000
      vertex   -3.950000e+001 5.600000e+001 1.500000e+000
    endloop
  endfacet
  facet normal 0.000000e+000 -0.000000e+000 1.000000e+000
    outer loop
      vertex   -3.850000e+001 5.600000e+001 1.500000e+000
      vertex   -3.850000e+001 6.600000e+001 1.500000e+000
      vertex   -3.950000e+001 5.600000e+001 1.500000e+000
    endloop
  endfacet
  facet normal -0.000000e+000 0.000000e+000 1.000000e+000
    outer loop
      vertex   -5.150000e+001 6.600000e+001 1.500000e+000
      vertex   -4.150000e+001 5.400000e+001 1.500000e+000
      vertex   -3.850000e+001 6.600000e+001 1.500000e+000
    endloop
  endfacet
  facet normal 1.000000e+000 8.881784e-016 -0.000000e+000
    outer loop
      vertex   -4.850000e+001 5.400000e+001 1.500000e+000
      vertex   -4.850000e+001 5.400000e+001 4.000000e+000
      vertex   -4.850000e+001 4.600000e+001 1.500000e+000
    endloop
  endfacet
  facet normal 1.000000e+000 8.881784e-016 0.000000e+000
    outer loop
      vertex   -4.850000e+001 4.600000e+001 1.500000e+000
      vertex   -4.850000e+001 5.400000e+001 4.000000e+000
      vertex   -4.850000e+001 4.600000e+001 4.000000e+000
    endloop
  endfacet
  facet normal -0.000000e+000 -1.000000e+000 -0.000000e+000
    outer loop
      vertex   -4.850000e+001 4.600000e+001 4.000000e+000
      vertex   -5.250000e+001 4.600000e+001 4.000000e+000
      vertex   -4.850000e+001 4.600000e+001 1.500000e+000
    endloop
  endfacet
  facet normal -0.000000e+000 -1.000000e+000 -0.000000e+000
    outer loop
      vertex   -4.850000e+001 4.600000e+001 1.500000e+000
      vertex   -5.250000e+001 4.600000e+001 4.000000e+000
      vertex   -5.250000e+001 4.600000e+001 0.000000e+000
    endloop
  endfacet
  facet normal -0.000000e+000 -1.000000e+000 0.000000e+000
    outer loop
      vertex   -3.750000e+001 4.600000e+001 0.000000e+000
      vertex   -4.850000e+001 4.600000e+001 1.500000e+000
      vertex   -5.250000e+001 4.600000e+001 0.000000e+000
    endloop
  endfacet
  facet normal 0.000000e+000 -1.000000e+000 0.000000e+000
    outer loop
      vertex   -3.750000e+001 4.600000e+001 0.000000e+000
      vertex   -4.150000e+001 4.600000e+001 1.500000e+000
      vertex   -4.850000e+001 4.600000e+001 1.500000e+000
    endloop
  endfacet
  facet normal -0.000000e+000 -1.000000e+000 0.000000e+000
    outer loop
      vertex   -3.750000e+001 4.600000e+001 0.000000e+000
      vertex   -3.750000e+001 4.600000e+001 4.000000e+000
      vertex   -4.150000e+001 4.600000e+001 1.500000e+000
    endloop
  endfacet
  facet normal 0.000000e+000 -1.000000e+000 0.000000e+000
    outer loop
      vertex   -4.150000e+001 4.600000e+001 1.500000e+000
      vertex   -3.750000e+001 4.600000e+001 4.000000e+000
      vertex   -4.150000e+001 4.600000e+001 4.000000e+000
    endloop
  endfacet
  facet normal 1.000000e+000 -3.552714e-016 0.000000e+000
    outer loop
      vertex   -3.750000e+001 4.600000e+001 4.000000e+000
      vertex   -3.750000e+001 4.600000e+001 0.000000e+000
      vertex   -3.750000e+001 6.600000e+001 4.000000e+000
    endloop
  endfacet
  facet normal 1.000000e+000 -3.552714e-016 0.000000e+000
    outer loop
      vertex   -3.750000e+001 6.600000e+001 4.000000e+000
      vertex   -3.750000e+001 4.600000e+001 0.000000e+000
      vertex   -3.750000e+001 6.600000e+001 0.000000e+000
    endloop
  endfacet
  facet normal 0.000000e+000 0.000000e+000 -1.000000e+000
    outer loop
      vertex   -5.250000e+001 4.600000e+001 0.000000e+000
      vertex   -5.250000e+001 6.600000e+001 0.000000e+000
      vertex   -3.750000e+001 4.600000e+001 0.000000e+000
    endloop
  endfacet
  facet normal 0.000000e+000 0.000000e+000 -1.000000e+000
    outer loop
      vertex   -3.750000e+001 4.600000e+001 0.000000e+000
      vertex   -5.250000e+001 6.600000e+001 0.000000e+000
      vertex   -3.750000e+001 6.600000e+001 0.000000e+000
    endloop
  endfacet
  facet normal -1.000000e+000 3.552714e-016 0.000000e+000
    outer loop
      vertex   -5.250000e+001 4.600000e+001 0.000000e+000
      vertex   -5.250000e+001 4.600000e+001 4.000000e+000
      vertex   -5.250000e+001 6.600000e+001 0.000000e+000
    endloop
  endfacet
  facet normal -1.000000e+000 3.552714e-016 0.000000e+000
    outer loop
      vertex   -5.250000e+001 6.600000e+001 0.000000e+000
      vertex   -5.250000e+001 4.600000e+001 4.000000e+000
      vertex   -5.250000e+001 6.600000e+001 4.000000e+000
    endloop
  endfacet
  facet normal 0.000000e+000 0.000000e+000 1.000000e+000
    outer loop
      vertex   -4.850000e+001 5.400000e+001 4.000000e+000
      vertex   -5.050000e+001 5.600000e+001 4.000000e+000
      vertex   -4.850000e+001 4.600000e+001 4.000000e+000
    endloop
  endfacet
  facet normal 0.000000e+000 0.000000e+000 1.000000e+000
    outer loop
      vertex   -4.850000e+001 4.600000e+001 4.000000e+000
      vertex   -5.050000e+001 5.600000e+001 4.000000e+000
      vertex   -5.250000e+001 4.600000e+001 4.000000e+000
    endloop
  endfacet
  facet normal 0.000000e+000 -0.000000e+000 1.000000e+000
    outer loop
      vertex   -5.250000e+001 4.600000e+001 4.000000e+000
      vertex   -5.050000e+001 5.600000e+001 4.000000e+000
      vertex   -5.150000e+001 5.600000e+001 4.000000e+000
    endloop
  endfacet
  facet normal -0.000000e+000 0.000000e+000 1.000000e+000
    outer loop
      vertex   -5.250000e+001 6.600000e+001 4.000000e+000
      vertex   -5.150000e+001 5.600000e+001 4.000000e+000
      vertex   -5.150000e+001 6.600000e+001 4.000000e+000
    endloop
  endfacet
  facet normal -0.000000e+000 0.000000e+000 1.000000e+000
    outer loop
      vertex   -5.250000e+001 6.600000e+001 4.000000e+000
      vertex   -5.250000e+001 4.600000e+001 4.000000e+000
      vertex   -5.150000e+001 5.600000e+001 4.000000e+000
    endloop
  endfacet
  facet normal 0.000000e+000 1.000000e+000 0.000000e+000
    outer loop
      vertex   -5.150000e+001 6.600000e+001 4.000000e+000
      vertex   -5.150000e+001 6.600000e+001 1.500000e+000
      vertex   -5.250000e+001 6.600000e+001 4.000000e+000
    endloop
  endfacet
  facet normal 0.000000e+000 1.000000e+000 0.000000e+000
    outer loop
      vertex   -5.250000e+001 6.600000e+001 4.000000e+000
      vertex   -5.150000e+001 6.600000e+001 1.500000e+000
      vertex   -5.250000e+001 6.600000e+001 0.000000e+000
    endloop
  endfacet
  facet normal -0.000000e+000 1.000000e+000 0.000000e+000
    outer loop
      vertex   -5.250000e+001 6.600000e+001 0.000000e+000
      vertex   -5.150000e+001 6.600000e+001 1.500000e+000
      vertex   -3.750000e+001 6.600000e+001 0.000000e+000
    endloop
  endfacet
  facet normal 0.000000e+000 1.000000e+000 -0.000000e+000
    outer loop
      vertex   -3.750000e+001 6.600000e+001 0.000000e+000
      vertex   -5.150000e+001 6.600000e+001 1.500000e+000
      vertex   -3.850000e+001 6.600000e+001 1.500000e+000
    endloop
  endfacet
  facet normal 0.000000e+000 1.000000e+000 -0.000000e+000
    outer loop
      vertex   -3.750000e+001 6.600000e+001 4.000000e+000
      vertex   -3.850000e+001 6.600000e+001 1.500000e+000
      vertex   -3.850000e+001 6.600000e+001 4.000000e+000
    endloop
  endfacet
  facet normal 0.000000e+000 1.000000e+000 0.000000e+000
    outer loop
      vertex   -3.750000e+001 6.600000e+001 4.000000e+000
      vertex   -3.750000e+001 6.600000e+001 0.000000e+000
      vertex   -3.850000e+001 6.600000e+001 1.500000e+000
    endloop
  endfacet
  facet normal 1.000000e+000 0.000000e+000 -0.000000e+000
    outer loop
      vertex   -5.150000e+001 6.600000e+001 1.500000e+000
      vertex   -5.150000e+001 6.600000e+001 4.000000e+000
      vertex   -5.150000e+001 5.600000e+001 1.500000e+000
    endloop
  endfacet
  facet normal 1.000000e+000 0.000000e+000 -0.000000e+000
    outer loop
      vertex   -5.150000e+001 5.600000e+001 1.500000e+000
      vertex   -5.150000e+001 6.600000e+001 4.000000e+000
      vertex   -5.150000e+001 5.600000e+001 4.000000e+000
    endloop
  endfacet
  facet normal 7.105427e-015 1.000000e+000 -0.000000e+000
    outer loop
      vertex   -3.950000e+001 5.600000e+001 1.500000e+000
      vertex   -3.950000e+001 5.600000e+001 4.000000e+000
      vertex   -3.850000e+001 5.600000e+001 1.500000e+000
    endloop
  endfacet
  facet normal 7.105427e-015 1.000000e+000 0.000000e+000
    outer loop
      vertex   -3.850000e+001 5.600000e+001 1.500000e+000
      vertex   -3.950000e+001 5.600000e+001 4.000000e+000
      vertex   -3.850000e+001 5.600000e+001 4.000000e+000
    endloop
  endfacet
  facet normal -1.000000e+000 -0.000000e+000 -0.000000e+000
    outer loop
      vertex   -3.850000e+001 6.600000e+001 4.000000e+000
      vertex   -3.850000e+001 6.600000e+001 1.500000e+000
      vertex   -3.850000e+001 5.600000e+001 4.000000e+000
    endloop
  endfacet
  facet normal -1.000000e+000 -0.000000e+000 -0.000000e+000
    outer loop
      vertex   -3.850000e+001 5.600000e+001 4.000000e+000
      vertex   -3.850000e+001 6.600000e+001 1.500000e+000
      vertex   -3.850000e+001 5.600000e+001 1.500000e+000
    endloop
  endfacet
endsolid
